<?xml version="1.0" standalone="no"?>
<!DOCTYPE svg PUBLIC "-//W3C//DTD SVG 20010904//EN"
 "http://www.w3.org/TR/2001/REC-SVG-20010904/DTD/svg10.dtd">
<svg version="1.0" xmlns="http://www.w3.org/2000/svg"
 width="1080.000000pt" height="1455.000000pt" viewBox="0 0 1080.000000 1455.000000"
 preserveAspectRatio="xMidYMid meet">

<g transform="translate(0.000000,1455.000000) scale(0.100000,-0.100000)"
fill="#000000" stroke="none">
<path d="M590 13667 c0 -2 14 -13 30 -25 17 -13 30 -19 30 -14 0 4 -13 16 -30
25 -16 10 -30 16 -30 14z"/>
<path d="M730 13536 c0 -2 8 -10 18 -17 15 -13 16 -12 3 4 -13 16 -21 21 -21
13z"/>
<path d="M3818 13454 c-53 -18 -185 -110 -240 -166 -52 -53 -78 -59 -141 -33
-51 21 -129 19 -180 -5 -61 -29 -110 -72 -102 -90 3 -8 32 -32 65 -52 72 -45
94 -78 115 -177 31 -142 56 -211 99 -273 57 -85 140 -150 219 -173 70 -21 97
-39 97 -67 0 -20 31 -103 56 -150 8 -14 14 -45 14 -67 0 -23 9 -59 20 -81 11
-22 20 -59 20 -84 0 -31 13 -74 40 -136 22 -50 40 -101 40 -114 0 -43 31 -171
51 -207 10 -20 19 -50 19 -67 0 -17 14 -69 30 -115 30 -86 40 -186 21 -216
-13 -20 -118 -25 -147 -7 -12 9 -36 40 -54 71 -18 31 -34 55 -36 53 -5 -6 68
-183 80 -190 6 -4 7 -10 3 -14 -10 -10 -53 32 -92 90 l-34 49 -3 -39 -4 -39
-23 48 c-12 27 -29 51 -37 54 -8 3 -14 11 -14 18 0 8 -4 17 -10 20 -15 9 -1
-80 21 -143 10 -29 36 -89 56 -133 30 -66 35 -85 27 -107 -9 -25 -15 -28 -76
-34 -106 -10 -125 -17 -153 -54 -15 -20 -25 -37 -24 -39 8 -7 184 -17 177 -10
-4 4 -24 8 -45 9 -73 5 -78 9 -18 16 74 9 157 1 152 -14 -2 -6 2 -17 10 -24 7
-7 13 -25 13 -39 l0 -26 -119 7 c-121 7 -244 32 -300 61 -38 19 -40 35 -3 36
27 1 26 1 -4 9 -44 10 -158 74 -211 117 -157 129 -263 380 -263 625 0 81 5
113 26 174 40 117 17 134 -78 59 -48 -37 -64 -59 -102 -137 -71 -145 -97 -249
-99 -393 -2 -137 12 -230 54 -365 27 -85 36 -102 90 -160 33 -36 70 -83 81
-105 11 -22 28 -47 37 -55 32 -30 136 -98 161 -105 44 -13 79 -54 86 -102 4
-26 2 -49 -4 -55 -16 -16 -89 1 -120 27 l-28 23 -32 -20 c-34 -21 -62 -64 -62
-95 0 -10 -7 -28 -15 -39 -17 -26 -11 -34 27 -34 35 0 108 -45 108 -66 0 -14
-6 -15 -37 -9 -21 4 -88 9 -150 11 l-112 4 5 -28 c8 -40 -40 -88 -98 -97 -95
-15 -116 -24 -111 -46 6 -20 0 -28 -65 -82 -33 -27 -33 -27 -8 -27 55 0 105
-34 106 -73 0 -9 -34 -51 -76 -92 l-76 -76 23 -18 23 -18 -37 -37 c-20 -20
-45 -36 -57 -36 -21 0 -27 -14 -10 -25 6 -3 10 -33 10 -66 0 -35 7 -73 16 -91
16 -30 16 -30 30 -9 35 49 54 16 35 -59 -23 -90 -22 -99 9 -115 16 -8 32 -24
35 -36 6 -17 13 -20 35 -16 35 7 50 -8 50 -51 0 -18 10 -51 23 -73 l22 -40
-25 -19 c-14 -11 -32 -20 -41 -20 -20 0 -69 -23 -69 -32 0 -5 -9 -8 -21 -8
-11 0 -18 -4 -15 -9 3 -4 -6 -6 -21 -3 -16 3 -24 1 -20 -5 4 -6 -12 -17 -38
-25 -47 -16 -62 -9 -22 10 33 16 0 14 -56 -3 -53 -16 -69 -13 -110 22 -31 25
-85 31 -105 11 -7 -7 -12 -44 -12 -95 0 -82 0 -83 -27 -88 -23 -5 -128 -36
-287 -86 -16 -5 -40 -9 -54 -9 -14 0 -86 -20 -161 -44 -75 -25 -170 -54 -211
-66 -41 -12 -84 -25 -95 -29 -19 -8 -91 -30 -265 -81 -41 -12 -86 -26 -100
-31 -14 -4 -41 -11 -60 -14 -32 -6 -37 -4 -47 22 -11 28 -11 28 -12 3 -1 -39
13 -52 86 -78 95 -33 120 -35 183 -17 30 9 71 19 91 22 34 4 37 3 48 -28 17
-50 14 -120 -9 -157 -23 -38 -25 -53 -6 -46 11 4 14 -8 15 -58 0 -35 2 -72 3
-83 2 -14 -4 -21 -19 -23 -35 -5 -27 -29 15 -51 20 -11 48 -29 61 -42 24 -22
71 -113 71 -137 0 -7 7 -27 16 -44 l16 -31 68 6 c80 7 96 -3 85 -54 -5 -21 -1
-44 11 -70 l17 -39 -26 -28 c-26 -27 -26 -28 -17 -117 5 -50 13 -119 16 -155
8 -80 19 -102 64 -132 31 -21 35 -29 36 -72 1 -30 -1 -44 -7 -35 -11 19 -40
-52 -47 -115 -7 -66 17 -108 74 -135 53 -25 77 -59 68 -95 -4 -16 -1 -32 6
-41 10 -12 11 -27 1 -68 -17 -79 0 -275 28 -321 60 -96 307 -279 407 -300 34
-8 143 8 214 30 49 15 156 21 168 10 4 -4 5 -58 3 -120 l-3 -113 29 -6 c20 -4
38 -19 56 -46 44 -66 60 -57 134 74 63 112 73 146 73 240 0 84 -11 131 -40
175 -9 14 -26 53 -37 87 -21 62 -21 62 -1 99 15 29 17 39 6 51 -14 17 -43 14
-178 -18 -46 -11 -97 -18 -112 -15 -15 3 -42 9 -58 12 -39 8 -54 35 -35 60 22
29 19 39 -30 94 -25 28 -54 69 -66 91 -25 49 -61 84 -109 106 -19 8 -54 33
-77 54 -24 22 -47 39 -53 39 -17 0 -11 43 10 78 34 56 26 112 -26 175 -32 38
-30 53 10 98 35 38 54 95 42 125 -3 8 -10 13 -15 10 -15 -10 -72 153 -71 204
1 26 16 -9 25 -55 l7 -39 19 24 c10 14 32 50 48 80 37 68 84 120 108 120 10
-1 29 -7 43 -15 37 -21 96 -18 129 6 15 11 61 29 102 40 41 10 95 26 121 35
33 11 64 13 100 9 47 -6 58 -3 91 19 42 29 178 56 283 56 86 0 172 18 206 43
16 12 39 39 51 59 20 37 51 50 59 27 3 -8 24 -10 70 -5 66 7 66 8 96 56 33 52
72 83 72 55 0 -8 -4 -15 -9 -15 -17 0 -21 -63 -7 -119 12 -47 26 -149 40 -286
2 -16 -3 -39 -10 -50 -10 -14 -12 -37 -8 -80 5 -46 0 -89 -21 -180 -30 -134
-38 -151 -89 -185 -26 -19 -36 -32 -36 -52 0 -16 5 -28 11 -28 6 0 8 -9 4 -21
-4 -12 -8 -29 -10 -38 -1 -9 -8 -15 -14 -13 -6 1 -11 -5 -11 -14 0 -8 5 -12
10 -9 13 8 13 7 -11 -61 -11 -32 -18 -70 -15 -84 5 -30 -3 -46 -24 -45 -12 0
-16 -17 -20 -80 -5 -79 -6 -80 -38 -97 -35 -17 -132 -116 -132 -133 1 -5 7
-18 15 -29 10 -13 11 -25 4 -43 -5 -13 -9 -50 -9 -81 0 -31 -7 -97 -15 -147
-8 -49 -15 -117 -15 -151 0 -63 -15 -124 -31 -124 -17 0 -9 -18 23 -57 18 -22
51 -83 72 -137 l40 -97 -17 -47 c-9 -26 -30 -99 -46 -162 -15 -63 -52 -176
-81 -250 -28 -74 -60 -173 -71 -218 -18 -79 -19 -89 -4 -165 15 -80 57 -170
114 -246 23 -30 26 -44 25 -105 -3 -140 -64 -332 -140 -439 -33 -45 -34 -51
-34 -138 0 -76 -4 -98 -22 -131 -13 -22 -35 -46 -50 -54 -35 -18 -105 -105
-131 -164 -12 -25 -28 -72 -37 -105 -16 -57 -20 -62 -69 -87 -96 -51 -235
-155 -333 -252 -115 -113 -120 -123 -267 -501 -56 -143 -112 -285 -125 -315
-25 -58 -83 -246 -97 -317 -10 -51 -2 -80 51 -183 53 -102 109 -164 226 -251
180 -135 269 -184 534 -295 435 -181 798 -281 1365 -374 138 -23 279 -47 315
-55 36 -8 115 -19 175 -25 61 -6 162 -17 225 -25 209 -26 580 -52 925 -65 325
-11 1112 19 1410 54 340 41 471 61 695 106 461 92 691 160 910 269 375 186
613 412 627 594 4 52 -1 79 -30 167 -19 58 -47 150 -61 205 -15 55 -63 208
-107 340 -60 182 -91 261 -129 325 -28 47 -50 97 -50 112 0 14 27 77 60 140
134 251 143 274 136 322 -4 24 -20 62 -36 84 -24 33 -36 41 -74 46 -25 4 -99
33 -163 65 -118 58 -118 58 -238 65 -66 5 -136 7 -155 5 -114 -10 -126 -7
-180 46 -28 28 -70 84 -92 125 -30 55 -73 107 -159 195 -65 66 -123 134 -130
150 -6 17 -15 64 -19 105 -7 66 -11 77 -39 102 -64 58 -25 80 82 48 83 -26
181 -23 226 7 14 9 50 20 79 24 30 4 56 10 60 13 3 3 -3 30 -13 60 -10 30 -15
61 -11 72 6 16 19 7 85 -61 103 -106 195 -187 231 -204 27 -13 32 -12 97 27
38 23 77 42 86 42 9 0 38 15 64 34 27 18 82 50 123 71 84 42 140 80 140 97 0
18 86 150 114 177 32 30 34 76 7 182 -10 41 -21 106 -24 146 l-4 72 61 -6 c52
-4 65 -2 86 15 21 17 25 28 24 71 -1 27 -11 94 -22 148 -24 117 -46 288 -41
322 5 31 52 59 99 60 42 1 131 -62 252 -177 73 -70 78 -73 112 -66 28 5 38 12
42 33 13 51 30 61 114 61 42 0 91 5 109 11 37 13 101 92 101 125 0 21 -36 67
-137 173 -56 58 -56 90 -3 106 42 12 123 66 156 103 30 34 32 34 70 22 21 -7
65 -32 96 -56 75 -59 107 -65 150 -29 41 35 91 101 107 141 9 23 10 42 2 70
-9 35 -17 42 -80 71 -78 37 -136 91 -182 171 -33 56 -67 86 -138 122 -58 29
-171 118 -171 135 0 8 9 16 19 20 30 9 81 73 81 100 0 19 -4 23 -17 18 -10 -4
-14 -2 -10 4 3 5 -58 75 -136 154 -199 203 -228 247 -192 295 21 28 18 41 -14
60 -16 10 -34 28 -40 41 -6 14 -39 66 -72 116 -58 87 -61 95 -55 137 3 27 2
40 -3 32 -11 -18 -46 -11 -46 8 0 8 -11 27 -25 42 -14 14 -48 65 -75 113 -28
48 -71 119 -97 159 -25 40 -69 124 -98 187 -28 63 -60 123 -71 135 -10 11 -37
56 -60 99 -41 80 -44 99 -23 165 7 22 6 24 -9 11 -23 -18 -50 -7 -42 18 4 14
0 21 -14 26 -11 3 -29 23 -42 43 -20 34 -22 35 -30 17 l-9 -20 2 20 c3 31 -48
123 -95 169 -47 47 -148 210 -149 241 -1 36 -28 106 -72 189 -36 67 -42 88
-39 122 3 24 0 44 -6 48 -6 4 -11 2 -11 -3 0 -6 -7 -11 -15 -11 -9 0 -15 9
-15 25 0 16 -6 25 -15 25 -19 0 -67 66 -107 145 -64 128 -207 352 -296 467
-35 45 -72 99 -83 120 -11 22 -29 42 -39 46 -11 4 -68 55 -128 113 -59 58
-127 119 -152 134 -25 16 -58 40 -73 52 -16 13 -54 30 -85 39 -31 9 -93 35
-137 57 -44 22 -109 51 -145 64 -111 42 -139 63 -231 176 -49 60 -89 113 -89
119 0 6 20 41 45 78 73 109 68 110 -88 12 -63 -39 -85 -58 -78 -65 21 -21 13
-40 -14 -33 -14 4 -46 0 -71 -9 -53 -18 -74 -9 -74 31 0 26 5 27 93 26 45 -1
48 0 41 21 -3 12 -12 29 -19 37 -18 21 -28 64 -20 89 5 17 15 21 45 21 39 0
39 0 33 33 -8 43 -11 45 -29 19 -20 -28 -28 -28 -44 3 -8 15 -22 25 -35 25
-44 0 -51 25 -22 83 87 176 121 284 122 378 0 85 -9 102 -77 145 -30 19 -39
32 -44 64 -12 72 -69 117 -92 73 -5 -10 -15 -43 -21 -73 -17 -78 -57 -203 -81
-250 -31 -60 -123 -145 -198 -182 -62 -31 -74 -33 -167 -33 -103 0 -178 18
-219 54 -26 23 -18 149 13 191 26 36 26 60 1 163 -46 184 -107 326 -179 422
-80 106 -221 229 -316 277 -60 31 -152 58 -193 58 -87 0 -84 -37 11 -141 130
-143 194 -270 217 -431 10 -69 9 -104 -6 -175 -5 -27 -36 -38 -65 -22 -48 25
-289 222 -321 262 -57 69 -98 139 -228 387 -156 300 -206 381 -275 454 -59 63
-64 83 -26 102 29 15 62 69 55 88 -3 9 -31 25 -62 36 -32 12 -96 43 -143 71
-48 27 -89 49 -92 49 -3 0 -36 18 -74 39 -56 33 -83 42 -155 51 -100 12 -114
16 -122 35 -6 17 8 29 64 51 61 23 66 29 46 59 -33 51 -72 65 -171 63 -50 -1
-107 -7 -127 -14z m-473 -254 c3 -6 -1 -7 -9 -4 -18 7 -21 14 -7 14 6 0 13 -4
16 -10z m30 -31 c11 -17 -1 -21 -15 -4 -8 9 -8 15 -2 15 6 0 14 -5 17 -11z
m549 -114 c-4 -8 -10 -15 -14 -15 -5 0 -22 -35 -39 -77 -20 -53 -30 -69 -31
-52 0 35 35 114 62 139 26 24 29 25 22 5z m-34 -514 c0 -9 -24 -21 -43 -21 -6
0 -2 7 9 15 22 17 34 19 34 6z m-60 -21 c0 -5 -5 -10 -11 -10 -5 0 -7 5 -4 10
3 6 8 10 11 10 2 0 4 -4 4 -10z m199 -23 c-2 -2 -35 -22 -74 -45 -50 -30 -71
-38 -77 -29 -6 9 -8 9 -8 0 0 -8 -12 -13 -27 -12 l-28 0 28 22 c36 29 220 92
186 64z m205 -99 c3 -16 5 -28 2 -28 -4 0 -36 95 -36 107 1 12 26 -47 34 -79z
m1199 23 c62 -30 115 -75 199 -169 66 -74 149 -214 148 -251 -1 -9 -10 2 -22
24 -57 112 -137 206 -240 282 -17 12 -49 39 -71 60 -23 21 -54 46 -69 56 -31
19 -39 43 -10 29 9 -5 39 -19 65 -31z m-788 -216 c20 -60 45 -125 56 -143 22
-38 23 -42 9 -42 -5 0 -12 11 -16 25 -3 14 -9 25 -14 25 -14 0 -70 150 -70
189 0 16 -5 31 -12 33 -6 2 -8 10 -4 17 5 7 9 11 11 9 2 -2 20 -52 40 -113z
m170 -20 c72 -129 106 -197 140 -283 20 -52 35 -96 32 -98 -8 -9 -48 54 -72
114 -12 31 -53 119 -89 194 -84 174 -90 214 -11 73z m-290 -39 c9 -56 111
-325 133 -349 9 -10 21 -16 27 -14 6 3 21 -4 34 -14 13 -11 18 -19 11 -19 -9
0 -6 -8 6 -22 19 -21 19 -21 -1 -13 -11 4 -31 10 -45 13 -34 7 -50 21 -50 45
0 11 -6 28 -14 36 -22 25 -131 343 -141 411 l-5 35 21 -44 c12 -24 23 -54 24
-65z m-461 73 c5 -4 -3 -11 -18 -15 -14 -3 -26 -12 -26 -19 0 -13 -11 -14 -40
-2 -34 14 -94 26 -102 21 -4 -3 -8 1 -8 10 0 8 6 17 13 20 17 7 170 -5 181
-15z m433 -434 c120 -336 134 -368 192 -445 54 -71 52 -86 -2 -30 -72 74 -130
196 -207 435 -24 72 -58 175 -76 230 -77 228 -2 75 93 -190z m-337 185 c0 -6
-6 -13 -14 -16 -8 -3 -16 -13 -18 -22 -3 -9 -22 -23 -44 -31 -21 -7 -47 -20
-56 -29 -29 -25 -20 0 12 36 47 51 120 89 120 62z m-22 -115 c-3 -3 -9 2 -12
12 -6 14 -5 15 5 6 7 -7 10 -15 7 -18z m1732 -86 c12 -39 19 -74 16 -76 -3 -3
-8 3 -12 13 -3 10 -12 36 -20 57 -13 36 -19 77 -10 77 2 0 14 -32 26 -71z
m-1054 22 c80 -39 165 -158 178 -251 5 -37 4 -41 -5 -23 -21 40 -38 36 -51
-12 -7 -25 -16 -45 -20 -45 -4 0 -8 -9 -8 -20 0 -27 -29 -82 -39 -76 -5 3 -7
45 -5 93 4 99 -2 133 -22 133 -8 0 -22 28 -33 68 -12 37 -30 81 -41 97 -38 57
-22 69 46 36z m-1928 -69 c-15 -17 -27 -60 -69 -226 -21 -85 -21 -96 -9 -204
7 -63 21 -152 32 -196 10 -45 22 -97 27 -116 5 -19 18 -63 30 -97 11 -34 21
-68 21 -75 0 -22 -43 55 -51 92 -5 19 -19 78 -32 130 -45 177 -57 262 -57 388
0 98 4 135 21 185 23 68 53 125 78 145 21 17 28 -3 9 -26z m1367 -63 c19 -7
14 -10 -17 -12 -7 -1 -28 3 -47 7 -24 6 -30 11 -20 17 14 8 44 4 84 -12z
m2562 6 c0 -8 -4 -15 -9 -15 -10 0 -11 14 -1 23 9 10 10 9 10 -8z m3 -85 c0
-22 -5 -30 -17 -30 -13 0 -14 3 -5 12 7 7 12 20 12 30 0 10 2 18 5 18 3 0 5
-13 5 -30z m-15 -50 c-3 -5 -10 -10 -16 -10 -5 0 -9 5 -9 10 0 6 7 10 16 10 8
0 12 -4 9 -10z m-2565 -130 c0 -5 -9 -14 -20 -20 -19 -10 -20 -10 -8 9 13 22
28 28 28 11z m-60 -43 c0 -10 -39 -47 -49 -47 -6 0 -11 -4 -11 -10 0 -5 -5
-10 -12 -10 -7 0 3 16 22 35 29 30 50 43 50 32z m1198 -39 c-6 -18 -15 -38
-20 -44 -5 -7 -9 -27 -10 -46 -1 -31 -8 -40 -62 -76 -87 -57 -120 -72 -158
-70 -18 1 -43 -1 -55 -6 -19 -6 -23 -4 -23 13 0 15 26 38 93 83 50 34 98 68
106 75 7 8 37 29 66 48 29 18 56 38 59 44 13 21 15 11 4 -21z m179 -91 c-7
-12 -23 -37 -35 -55 -13 -18 -21 -39 -18 -47 3 -9 -4 -21 -18 -30 -12 -8 -29
-26 -36 -39 -7 -14 -18 -22 -26 -19 -14 5 -7 -38 8 -48 6 -3 3 -9 -6 -12 -9
-4 -16 -2 -16 4 0 5 -14 2 -30 -6 -17 -9 -28 -21 -24 -26 4 -8 -1 -9 -16 -4
-19 6 -21 4 -15 -17 5 -17 4 -20 -4 -12 -7 7 -29 8 -56 4 -39 -6 -47 -4 -67
17 -14 15 -19 27 -12 31 5 4 36 24 67 45 90 61 90 72 0 31 -67 -30 -113 -41
-113 -26 0 6 43 40 94 76 52 37 98 71 101 77 12 18 84 59 105 59 15 0 20 -7
20 -25 0 -34 13 -31 58 10 43 40 56 44 39 12z m1077 -115 c9 -14 -14 -83 -25
-76 -6 3 -6 10 -1 17 5 7 13 23 17 36 6 20 4 23 -9 18 -10 -4 -15 -3 -11 3 8
12 22 13 29 2z m-2539 -40 c8 -21 -5 -122 -15 -122 -5 0 -9 25 -9 55 0 30 -2
64 -6 75 -5 15 -3 18 9 14 8 -3 17 -13 21 -22z m209 -73 c7 -37 -1 -56 -17
-40 -6 6 -22 11 -35 11 -17 0 -23 4 -18 15 3 8 0 14 -6 12 -19 -4 -21 34 -2
47 11 8 14 18 9 26 -5 8 8 1 27 -13 22 -17 38 -39 42 -58z m2496 77 c0 -3 -4
-8 -10 -11 -5 -3 -10 -1 -10 4 0 6 5 11 10 11 6 0 10 -2 10 -4z m-2199 -72
l24 -27 -32 17 c-36 18 -51 36 -30 36 7 0 24 -12 38 -26z m949 -39 c-30 -30
-62 -58 -72 -61 -10 -3 -18 -12 -18 -20 0 -8 -5 -14 -11 -14 -7 0 -30 -15 -53
-33 -97 -78 -209 -129 -194 -88 2 5 61 48 132 96 72 48 153 106 180 131 28 24
60 44 71 44 15 0 7 -12 -35 -55z m1046 -16 c-17 -64 -34 -109 -35 -91 -1 14
17 98 27 122 5 14 7 19 12 38 1 4 4 2 6 -4 3 -6 -2 -35 -10 -65z m-1601 21
c15 -28 14 -30 -4 -30 -25 0 -32 11 -24 38 7 29 9 28 28 -8z m1345 -12 c0 -5
-30 -8 -66 -8 -36 0 -63 3 -61 8 3 4 33 7 66 7 34 0 61 -3 61 -7z m-1200 -48
c0 -13 -42 -19 -62 -9 -30 16 -21 25 22 21 22 -2 40 -8 40 -12z m-597 -56 c10
-19 22 -32 27 -29 6 3 15 3 21 0 17 -11 -26 -45 -56 -45 -23 0 -25 2 -14 21 8
16 8 28 0 46 -13 28 -14 43 -3 43 5 0 16 -16 25 -36z m481 15 c-3 -5 -10 -7
-15 -3 -5 3 -7 10 -3 15 3 5 10 7 15 3 5 -3 7 -10 3 -15z m-1127 -66 c34 -40
37 -44 56 -85 22 -47 20 -98 -5 -98 -10 0 -18 -7 -18 -15 0 -8 -4 -15 -9 -15
-5 0 -13 -9 -16 -20 -3 -11 -13 -20 -21 -20 -24 0 -15 28 16 52 42 31 40 77
-5 162 -37 71 -37 83 2 39z m2433 -45 c0 -34 -61 -165 -85 -184 -8 -6 -12 -13
-9 -16 5 -6 -69 -68 -81 -68 -4 0 -13 -8 -20 -17 -9 -12 -25 -17 -54 -16 -33
2 -50 -5 -88 -34 -26 -20 -55 -46 -64 -57 -14 -17 -20 -19 -30 -8 -11 10 -1
24 51 73 36 34 108 94 160 133 87 65 108 88 180 190 31 44 40 45 40 4z m-500
-5 c8 -3 48 -9 88 -12 87 -7 93 -27 7 -24 -72 3 -140 20 -157 40 -10 12 -7 13
18 8 16 -4 36 -9 44 -12z m-331 -67 c51 -45 123 -78 199 -91 32 -5 42 -11 42
-26 0 -10 2 -19 5 -19 3 0 41 20 84 45 56 33 90 46 122 48 38 2 44 -1 44 -18
0 -15 -18 -26 -80 -50 -113 -44 -177 -75 -196 -94 -44 -44 -66 -56 -104 -58
-55 -1 -241 -67 -290 -102 -28 -20 -43 -40 -50 -67 -5 -22 -14 -45 -18 -52 -9
-14 -40 -16 -65 -3 -89 44 -121 71 -122 102 0 9 15 32 34 50 60 60 56 93 -9
91 -45 -2 -68 18 -68 58 0 54 70 96 117 70 19 -9 33 -8 82 8 104 34 144 59
144 89 0 34 26 63 56 63 13 0 45 -19 73 -44z m-2068 3 c22 -11 228 -39 302
-40 34 -1 72 -4 84 -7 24 -8 25 -5 -22 -79 -27 -44 -46 -53 -117 -54 -69 -2
-178 19 -178 33 0 5 -5 6 -10 3 -6 -4 -24 -3 -41 0 -24 6 -30 11 -25 26 3 10
9 27 12 37 4 14 -2 22 -26 32 -38 16 -80 48 -80 62 0 11 73 2 101 -13z m3109
-39 c0 -5 -2 -10 -4 -10 -3 0 -8 5 -11 10 -3 6 -1 10 4 10 6 0 11 -4 11 -10z
m-2070 -75 c0 -25 -14 -34 -24 -16 -8 12 3 41 15 41 5 0 9 -11 9 -25z m-160
-1 c0 -8 -5 -12 -10 -9 -6 4 -8 11 -5 16 9 14 15 11 15 -7z m349 -18 c-24 -28
-48 -31 -135 -19 -42 6 -45 8 -24 14 14 4 53 7 86 8 42 1 66 6 74 16 7 9 15
14 17 11 3 -2 -6 -16 -18 -30z m-649 14 c0 -5 -4 -10 -10 -10 -5 0 -10 5 -10
10 0 6 5 10 10 10 6 0 10 -4 10 -10z m-537 -80 c52 -11 162 -24 245 -29 84 -4
155 -11 159 -15 4 -3 2 -11 -5 -18 -19 -19 -348 -15 -363 5 -3 4 -37 15 -76
25 -42 10 -76 24 -82 35 -15 23 4 23 122 -3z m2447 -9 c0 -5 -15 -20 -32 -32
-18 -12 -63 -53 -99 -91 -36 -37 -70 -68 -76 -68 -6 0 -16 -7 -24 -16 -7 -8
-21 -13 -30 -11 -10 3 -24 -2 -30 -10 -7 -8 -21 -19 -32 -24 -17 -10 -18 -8
-12 12 20 62 133 172 229 223 48 26 106 35 106 17z m-1933 -46 c-11 -20 -12
-19 -15 3 -2 12 -9 22 -15 22 -8 0 -7 4 2 9 22 14 41 -9 28 -34z m751 0 c-1
-40 -13 -46 -22 -12 -9 35 -7 47 9 47 10 0 14 -10 13 -35z m-484 -19 c58 -29
60 -29 135 -18 42 6 87 14 101 18 19 5 22 4 14 -5 -5 -6 -41 -20 -78 -30 -38
-11 -73 -25 -77 -33 -8 -10 -11 -10 -20 5 -5 9 -19 17 -31 17 -27 0 -91 37
-107 62 -7 11 -9 19 -4 17 4 -2 35 -17 67 -33z m340 -1 c3 -8 1 -15 -3 -15 -5
0 -7 -9 -4 -20 6 -24 -12 -27 -21 -4 -10 27 -7 54 8 54 8 0 16 -7 20 -15z
m531 5 c3 -5 -1 -10 -10 -10 -9 0 -13 5 -10 10 3 6 8 10 10 10 2 0 7 -4 10
-10z m1101 -28 c6 -4 14 -19 18 -34 l6 -28 -85 0 c-47 0 -85 4 -85 9 0 4 21
16 48 26 26 10 51 22 57 26 11 11 26 11 41 1z m-1474 -27 c3 -14 1 -28 -3 -31
-5 -3 -9 1 -9 10 0 8 -3 21 -6 30 -3 9 -2 16 4 16 5 0 12 -11 14 -25z m2633
14 c22 -6 59 -19 82 -30 54 -24 201 -128 274 -194 31 -27 71 -62 89 -76 l34
-25 -30 -37 c-16 -20 -31 -37 -34 -37 -3 0 -53 46 -110 101 -119 115 -241 201
-347 243 -40 16 -73 35 -73 42 0 11 10 15 65 22 6 1 28 -3 50 -9z m-2781 -94
c4 -22 16 -78 27 -125 11 -47 24 -104 29 -128 13 -55 12 -72 -2 -48 -11 19
-21 64 -53 226 -23 114 -27 147 -17 130 5 -8 12 -33 16 -55z m-751 35 c15 -13
-109 -22 -203 -15 -81 6 -110 17 -79 27 20 7 274 -4 282 -12z m2663 -25 c-3
-9 -11 -13 -16 -10 -8 5 -7 11 1 21 14 18 24 11 15 -11z m-1131 -7 c-14 -48
-34 -131 -40 -171 -10 -72 -87 -345 -105 -375 -11 -18 -11 -18 9 77 5 25 7 49
4 54 -3 4 2 16 10 25 8 9 19 37 25 62 5 25 17 65 25 90 15 43 37 169 37 210 0
10 -9 22 -21 25 -28 9 -6 25 35 25 25 0 27 -3 21 -22z m870 -10 c75 -20 60
-39 -80 -98 -44 -18 -113 -49 -154 -67 -41 -19 -89 -37 -106 -40 -57 -9 -47
14 20 47 47 23 65 37 63 48 -5 27 -34 25 -103 -8 -37 -18 -69 -30 -71 -27 -11
10 10 35 61 72 92 66 266 101 370 73z m-1255 -23 c17 -21 7 -29 -40 -30 -45
-1 -44 -2 -28 25 15 24 50 26 68 5z m2794 -4 c10 -16 -5 -41 -25 -41 -19 0
-27 29 -12 43 9 10 31 9 37 -2z m-1984 -12 c0 -6 -27 -38 -59 -71 -42 -43 -63
-73 -72 -105 l-12 -44 -74 4 c-40 2 -76 7 -79 10 -10 9 24 63 58 93 90 78 238
149 238 113z m1370 -47 c0 -4 -16 -25 -35 -45 -32 -34 -35 -35 -35 -14 0 31
27 67 51 67 10 0 19 -4 19 -8z m-3976 -21 c10 -11 15 -24 12 -29 -3 -5 6 -20
19 -32 53 -50 16 -55 -41 -6 -21 18 -49 36 -61 40 -22 7 -30 26 -16 39 14 15
70 6 87 -12z m1592 -2 c8 -14 -11 -33 -25 -25 -11 7 -4 36 9 36 5 0 12 -5 16
-11z m-358 -86 c-10 -13 -50 -18 -60 -8 -3 3 2 21 11 40 l16 34 22 -26 c16
-20 19 -30 11 -40z m2728 31 c-3 -9 -6 -22 -6 -30 0 -9 -4 -12 -10 -9 -17 10
-12 55 6 55 11 0 14 -5 10 -16z m-3111 -23 c-6 -6 -26 -13 -45 -16 -19 -3 -43
-8 -52 -11 -12 -3 -18 0 -18 10 0 10 13 16 43 19 23 2 51 4 62 5 12 1 15 -2
10 -7z m3892 -7 c2 -7 -5 -10 -20 -7 -14 3 -28 0 -31 -6 -4 -6 -12 -11 -18
-11 -6 0 -3 9 7 20 19 22 56 24 62 4z m28 -24 c3 -5 1 -10 -4 -10 -6 0 -11 5
-11 10 0 6 2 10 4 10 3 0 8 -4 11 -10z m-2180 -19 c3 -5 1 -12 -5 -16 -5 -3
-10 1 -10 9 0 18 6 21 15 7z m282 -15 c-4 -11 2 -12 36 -4 44 10 173 6 185 -6
13 -14 -43 -46 -81 -46 -21 0 -58 -5 -82 -11 -40 -10 -48 -9 -91 15 -26 14
-53 26 -61 26 -8 0 -11 5 -8 10 3 6 18 10 33 10 15 0 34 5 42 10 21 14 33 12
27 -4z m1944 -8 c41 -49 62 -92 61 -124 -1 -22 4 -37 16 -43 15 -9 15 -11 -2
-30 -11 -12 -27 -21 -38 -21 -15 0 -18 8 -18 49 0 44 -2 49 -20 44 -32 -8 -39
42 -9 67 15 12 20 23 14 27 -25 19 -47 53 -36 53 7 0 21 -10 32 -22z m-1254
-15 c19 -25 16 -32 -14 -38 -16 -3 -42 -10 -59 -15 -47 -15 -61 -12 -84 17
-28 36 -22 47 31 54 62 9 112 2 126 -18z m-3844 0 c12 -12 -25 -42 -58 -49
-26 -5 -32 -10 -28 -25 3 -10 9 -19 14 -19 5 0 9 -8 9 -17 0 -9 10 -27 22 -40
19 -21 20 -23 3 -23 -23 0 -91 19 -132 36 -17 8 -54 14 -82 14 -47 0 -51 2
-51 24 0 30 46 67 110 89 45 16 181 23 193 10z m1932 -65 c9 -35 22 -69 27
-75 11 -14 4 -43 -10 -43 -9 0 -35 83 -48 154 -11 61 11 35 31 -36z m845 47
c6 -8 9 -19 5 -24 -9 -16 -72 -32 -160 -41 -44 -5 -91 -12 -104 -16 -18 -5
-23 -4 -19 6 18 56 243 117 278 75z m-2620 -9 c0 -8 -8 -16 -17 -19 -15 -3
-13 -6 10 -17 17 -8 36 -33 53 -68 25 -54 25 -55 7 -74 -21 -21 -12 -25 -89
41 -11 10 -44 31 -72 46 -77 42 -71 58 33 87 77 21 75 21 75 4z m250 2 c0 -4
-18 -17 -39 -28 -25 -12 -41 -28 -44 -42 -4 -20 -4 -19 -6 5 -1 37 17 70 35
63 8 -3 14 -1 14 4 0 5 9 8 20 7 11 -1 20 -5 20 -9z m1620 -28 c0 -5 -4 -10
-10 -10 -5 0 -10 5 -10 10 0 6 5 10 10 10 6 0 10 -4 10 -10z m1085 -39 c65
-31 90 -57 76 -80 -11 -17 -102 5 -95 24 3 8 -8 14 -33 18 -21 4 -58 11 -83
16 -25 6 -69 10 -98 11 -38 0 -52 4 -50 13 17 48 178 47 283 -2z m-1405 -51
c0 -5 -4 -10 -10 -10 -5 0 -10 5 -10 10 0 6 5 10 10 10 6 0 10 -4 10 -10z
m979 -21 c35 -12 41 -35 12 -44 -83 -26 -251 -26 -251 0 0 16 46 46 85 56 35
9 110 3 154 -12z m-881 -38 c-3 -23 -8 -26 -43 -29 -32 -2 -36 0 -22 8 9 6 21
9 26 6 5 -3 9 0 8 7 0 6 1 23 1 36 2 20 4 22 18 11 8 -8 14 -25 12 -39z m-280
-8 c-10 -2 -28 -2 -40 0 -13 2 -5 4 17 4 22 1 32 -1 23 -4z m3829 -117 c26
-39 61 -96 78 -126 18 -30 55 -95 84 -144 31 -54 49 -96 46 -107 -4 -11 1 -21
12 -27 16 -10 16 -14 -5 -75 -13 -35 -25 -85 -27 -109 -6 -71 -24 -127 -45
-138 -10 -5 -75 -10 -144 -10 -116 0 -127 2 -146 22 -11 12 -20 32 -20 45 0
27 -21 30 -41 7 -7 -9 -40 -36 -74 -62 -33 -25 -65 -51 -70 -58 -10 -11 -35
-18 -62 -15 -7 0 -13 10 -13 20 0 14 11 23 38 32 44 14 80 38 152 99 29 25 57
45 63 45 5 0 19 -25 31 -55 19 -48 26 -55 49 -54 220 5 232 7 210 44 -17 26
-16 55 3 110 9 25 16 69 15 98 0 47 2 54 24 62 14 5 25 17 25 26 0 23 -64 151
-100 199 -16 22 -51 76 -76 120 -26 44 -55 91 -65 104 -11 13 -19 28 -19 34 0
18 30 -15 77 -87z m-5552 39 c0 -11 -14 -28 -32 -40 -18 -11 -32 -27 -33 -36
0 -21 -36 -58 -63 -64 -25 -7 -97 20 -97 35 0 23 85 89 145 113 51 21 80 18
80 -8z m223 4 c10 0 12 -3 5 -6 -14 -5 19 -36 80 -72 20 -12 37 -29 37 -36 0
-20 -60 -24 -105 -8 -22 8 -71 15 -109 14 -37 0 -77 4 -87 10 -31 16 -23 45
19 65 53 25 115 43 130 38 8 -2 21 -4 30 -5z m3336 -22 c13 -36 3 -42 -33 -21
-32 19 -53 51 -26 41 8 -4 17 -2 21 4 10 16 28 5 38 -24z m-607 1 c18 -13 33
-26 33 -30 0 -4 16 -14 35 -22 24 -10 35 -22 35 -35 0 -30 -39 -36 -96 -15
-30 10 -93 19 -161 22 -106 4 -111 5 -95 22 29 30 59 40 136 46 57 5 73 10 69
20 -7 20 6 17 44 -8z m851 -138 c5 -36 24 -108 40 -160 17 -52 34 -108 38
-125 16 -73 57 -186 76 -210 23 -29 22 -30 -9 -39 -18 -6 -23 -3 -24 11 -1 23
-5 38 -24 93 -128 372 -157 494 -130 555 9 22 11 14 33 -125z m-1308 94 c0
-16 -23 -44 -35 -44 -18 0 -20 21 -3 38 12 12 38 17 38 6z m-360 -59 c-35 -19
-71 -35 -80 -35 -16 0 -78 -21 -95 -31 -34 -22 -162 -41 -234 -36 -50 3 -83 1
-90 -6 -7 -7 -12 -5 -17 6 -3 9 -12 17 -19 17 -8 0 -16 4 -19 8 -3 5 43 7 102
4 92 -4 122 0 212 22 58 15 125 33 150 41 25 8 65 21 90 29 70 23 70 18 0 -19z
m2660 13 c36 -6 77 -12 93 -13 15 -2 28 -3 30 -4 1 -1 18 -4 37 -7 19 -2 38
-8 42 -12 5 -5 -15 -5 -44 -1 -89 13 -128 11 -128 -6 0 -8 -4 -15 -10 -15 -5
0 -10 8 -10 18 0 15 -14 22 -62 35 -74 18 -41 22 52 5z m-3690 -5 c-1 -9 -50
-47 -50 -38 0 3 6 14 12 25 12 19 38 28 38 13z m-623 -25 c-3 -8 -6 -5 -6 6
-1 11 2 17 5 13 3 -3 4 -12 1 -19z m2798 1 c0 -7 -8 -15 -17 -17 -18 -3 -25
18 -11 32 10 10 28 1 28 -15z m929 1 c35 -13 34 -47 -1 -62 -16 -7 -62 -37
-103 -68 -80 -59 -115 -80 -135 -80 -17 0 -66 101 -72 149 -8 60 -9 60 234 69
28 1 63 -2 77 -8z m-710 -61 c-4 -13 -7 -30 -6 -36 2 -7 -1 -13 -5 -14 -4 0
-30 -3 -58 -5 -61 -6 -150 -48 -173 -82 -9 -13 -26 -35 -38 -47 -20 -22 -23
-22 -75 -9 -29 8 -61 14 -71 14 -9 0 -28 10 -42 23 -20 17 -27 33 -30 75 -2
28 0 52 3 52 4 0 15 -20 26 -45 11 -25 23 -45 27 -45 4 0 17 18 28 40 11 22
22 40 24 40 2 0 0 -19 -5 -42 -11 -58 -11 -58 6 -52 18 7 20 -7 3 -24 -9 -9
-1 -12 35 -12 44 0 52 4 99 50 28 28 54 48 56 45 3 -3 12 1 20 7 8 7 21 13 30
14 8 2 19 10 24 18 6 11 17 14 38 10 24 -5 32 -1 52 29 24 38 45 35 32 -4z
m-2209 -20 c28 -6 56 -16 63 -22 26 -20 8 -277 -19 -277 -9 0 -13 75 -10 175
1 28 -2 55 -6 61 -10 14 -68 44 -84 44 -16 0 -79 48 -79 60 0 5 19 0 43 -10
23 -10 65 -24 92 -31z m-1260 31 c3 -5 -17 -26 -45 -47 -39 -29 -50 -43 -50
-65 0 -25 -4 -28 -32 -29 -30 -1 -31 -2 -8 -8 27 -7 21 -14 -25 -26 -48 -13
-74 -2 -75 31 0 18 98 112 138 134 40 21 87 26 97 10z m265 -67 c78 -20 180
-75 180 -97 0 -3 -11 -1 -25 4 -14 5 -51 10 -83 10 -31 0 -88 1 -127 3 -97 6
-102 1 -53 -44 58 -51 26 -52 -42 -1 -27 21 -70 43 -95 50 -116 31 12 112 150
95 22 -3 65 -12 95 -20z m2500 17 c0 -5 19 -10 43 -10 23 0 52 -7 63 -15 12
-8 24 -11 28 -8 3 3 6 -6 6 -20 0 -15 -6 -27 -12 -27 -10 0 -10 -2 -1 -8 6 -4
15 -20 18 -35 4 -16 35 -56 69 -91 33 -34 69 -74 79 -89 10 -16 23 -24 32 -21
8 4 15 1 15 -5 0 -15 37 3 63 30 10 11 23 19 29 19 7 0 0 -12 -14 -27 -14 -16
-41 -45 -59 -65 -40 -43 -46 -41 -99 37 -83 123 -185 228 -272 281 -32 20 -58
38 -58 40 0 7 43 0 58 -9 15 -10 16 5 0 21 -9 9 -9 12 0 12 7 0 12 -4 12 -10z
m125 0 c3 -5 1 -10 -4 -10 -6 0 -11 5 -11 10 0 6 2 10 4 10 3 0 8 -4 11 -10z
m-259 -107 c29 -11 62 -30 75 -42 12 -11 35 -27 51 -33 15 -7 28 -17 28 -23 0
-5 14 -26 30 -45 16 -19 30 -39 30 -45 0 -5 -12 5 -26 23 -14 17 -31 32 -39
32 -7 0 -27 -17 -43 -37 -17 -21 -34 -34 -38 -30 -5 4 -3 12 4 16 7 4 21 24
32 44 l20 36 -33 24 c-28 21 -75 42 -190 86 -16 6 -26 15 -23 20 7 11 52 1
122 -26z m508 1 c4 -10 1 -14 -6 -12 -15 5 -23 28 -10 28 5 0 13 -7 16 -16z
m-739 -15 c-4 -5 -13 -9 -22 -9 -13 0 -13 3 -3 15 13 15 35 11 25 -6z m-215
-18 c0 -12 13 -24 98 -91 74 -57 86 -78 52 -87 -11 -3 -20 -12 -20 -20 0 -8 5
-11 10 -8 6 4 10 -10 10 -34 0 -48 -5 -50 -32 -16 -13 16 -29 25 -49 25 -22 0
-29 5 -29 20 0 11 4 20 10 20 5 0 12 11 16 25 3 14 10 25 14 25 5 0 6 9 3 20
-8 29 -80 91 -98 84 -8 -4 -22 -1 -30 6 -12 10 -22 8 -50 -10 -20 -12 -41 -27
-48 -34 -6 -6 -24 -19 -39 -29 -23 -14 -28 -25 -28 -55 0 -21 5 -43 11 -49 8
-8 7 -19 -4 -39 -14 -28 -21 -56 -18 -81 2 -28 147 -8 183 24 9 8 20 29 23 47
16 83 27 114 41 109 9 -3 11 -9 5 -17 -5 -6 -8 -22 -6 -36 1 -14 3 -33 4 -42
0 -10 7 -18 14 -18 16 0 37 -47 37 -83 0 -24 3 -28 18 -22 32 13 47 10 47 -10
0 -26 -54 -35 -67 -11 -15 26 -61 19 -150 -23 -112 -53 -128 -55 -146 -16 -6
14 -8 24 -4 23 4 0 18 4 32 9 l25 11 -27 11 c-16 6 -28 15 -28 21 0 6 -12 9
-27 8 l-28 -3 -1 73 c0 39 -4 75 -7 78 -4 4 -22 -5 -41 -19 -24 -19 -35 -36
-38 -62 -2 -20 0 -35 7 -35 5 0 33 -21 60 -46 28 -25 40 -41 28 -35 -12 6 -25
16 -28 21 -4 6 -31 26 -61 45 -30 19 -54 39 -54 45 0 40 274 264 346 283 33 8
64 7 64 -2z m1435 -32 c-6 -16 -86 -69 -125 -83 -60 -21 -73 -56 -44 -116 33
-66 -16 -140 -93 -140 -15 0 -51 10 -80 22 l-53 22 -28 -21 c-36 -27 -39 -48
-13 -94 14 -25 19 -47 16 -62 -10 -39 -58 -78 -104 -84 -37 -5 -41 -4 -41 16
0 17 6 21 29 21 43 0 74 45 61 90 -5 17 -14 38 -20 45 -7 9 -3 27 17 64 20 40
33 54 56 58 16 3 31 11 34 18 3 9 20 2 55 -21 27 -19 57 -34 65 -34 22 0 51
18 63 40 14 27 -19 105 -49 115 -27 8 -27 22 0 30 28 9 126 83 133 101 3 8 13
14 23 15 10 0 34 6 53 13 38 13 54 8 45 -15z m-1715 -8 c0 -11 9 -21 23 -25
l22 -5 -21 -22 c-22 -22 -44 -19 -44 6 0 7 -9 17 -20 20 -36 11 -24 45 17 45
16 0 23 -6 23 -19z m430 -1 c13 -9 13 -10 0 -10 -8 0 -22 5 -30 10 -13 9 -13
10 0 10 8 0 22 -5 30 -10z m-861 -61 c43 -43 47 -77 4 -37 -23 21 -59 78 -49
78 2 0 22 -18 45 -41z m-1489 15 c0 -9 -8 -28 -19 -42 -15 -22 -18 -42 -15
-109 3 -74 2 -83 -14 -83 -18 0 -62 75 -62 107 0 34 25 95 48 118 28 28 62 33
62 9z m435 -8 c20 -15 15 -46 -9 -46 -7 0 -16 -9 -19 -20 -4 -17 -14 -20 -70
-20 -52 0 -67 4 -83 21 -19 21 -18 21 11 42 25 19 59 28 136 35 8 1 24 -4 34
-12z m2172 -6 c51 -8 83 -34 83 -67 0 -14 4 -21 10 -18 6 3 10 0 10 -8 0 -8
-7 -17 -15 -21 -8 -3 -15 -12 -15 -21 0 -8 -7 -15 -15 -15 -17 0 -9 -29 14
-47 14 -11 13 -12 -8 -13 -21 0 -23 -3 -17 -35 10 -50 -12 -72 -42 -44 -13 11
-19 26 -15 35 3 9 1 19 -5 23 -16 9 -2 61 17 62 14 1 13 2 -1 6 -10 2 -18 9
-18 14 0 9 -9 22 -39 55 -9 10 -11 27 -8 49 3 19 1 37 -4 40 -17 11 -10 27 9
20 9 -4 36 -11 59 -15z m-460 -22 c-3 -8 -6 -5 -6 6 -1 11 2 17 5 13 3 -3 4
-12 1 -19z m-2270 -2 c-3 -8 -9 -31 -13 -50 -3 -20 -10 -36 -15 -36 -15 0 -14
52 2 83 12 20 34 23 26 3z m229 -1 c4 -9 1 -29 -6 -46 -7 -16 -14 -47 -15 -67
-1 -20 -3 -47 -4 -60 -2 -34 -33 -24 -43 13 -20 78 43 226 68 160z m2079 5 c3
-5 1 -10 -4 -10 -6 0 -11 5 -11 10 0 6 2 10 4 10 3 0 8 -4 11 -10z m-504 -12
c3 -62 -5 -154 -14 -160 -29 -18 -44 6 -53 84 -5 43 -3 58 11 71 19 20 55 23
56 5z m379 -14 c0 -8 -4 -12 -10 -9 -5 3 -10 10 -10 16 0 5 5 9 10 9 6 0 10
-7 10 -16z m1598 -13 c12 -11 22 -22 22 -25 0 -12 -39 -5 -54 9 -8 8 -19 15
-25 15 -6 0 -11 5 -11 10 0 17 44 11 68 -9z m-345 -46 c-25 -19 -33 -18 -33 4
0 10 10 25 23 34 20 14 22 13 25 -5 2 -11 -5 -26 -15 -33z m-1173 -16 c0 -14
-5 -19 -17 -17 -26 5 -29 38 -4 38 15 0 21 -6 21 -21z m410 5 c0 -8 -4 -12
-10 -9 -5 3 -10 10 -10 16 0 5 5 9 10 9 6 0 10 -7 10 -16z m-1320 -13 c0 -6
-9 -16 -20 -24 -11 -8 -17 -17 -13 -20 3 -4 1 -7 -6 -7 -6 0 -14 7 -17 15 -5
11 -24 15 -73 16 l-66 2 83 7 c45 4 86 10 89 14 9 9 23 7 23 -3z m2407 -18 c4
-10 -2 -23 -17 -35 -21 -17 -25 -17 -32 -4 -10 18 10 56 30 56 7 0 15 -7 19
-17z m-3354 -21 c-2 -7 2 -12 7 -12 23 0 7 -22 -42 -58 -29 -21 -65 -42 -80
-46 -28 -6 -28 -6 -28 43 0 70 26 94 95 89 32 -3 49 -8 48 -16z m1787 -2 c0
-11 -7 -20 -15 -20 -15 0 -21 21 -8 33 12 13 23 7 23 -13z m-1486 -35 c3 -8 0
-27 -6 -41 -9 -19 -9 -30 0 -44 8 -13 9 -32 2 -62 -18 -84 -37 -142 -47 -145
-6 -2 -21 9 -33 24 -19 24 -21 35 -15 87 7 65 28 126 57 169 22 31 33 34 42
12z m617 -22 c-7 -27 -11 -28 -72 -30 l-64 -1 60 11 c43 9 61 17 63 30 2 9 7
17 12 17 4 0 5 -12 1 -27z m1372 -3 c4 -15 0 -20 -14 -20 -12 0 -19 7 -19 20
0 11 6 20 14 20 7 0 16 -9 19 -20z m-1630 -7 c-7 -2 -21 -2 -30 0 -10 3 -4 5
12 5 17 0 24 -2 18 -5z m931 -99 c71 -70 86 -96 100 -179 1 -11 6 -28 10 -37
9 -19 -5 -48 -49 -103 -32 -39 -100 -141 -120 -179 -23 -45 -53 -18 -34 30 13
36 8 38 -25 7 -27 -25 -31 -25 -99 -17 l-72 9 -8 55 c-5 30 -17 101 -28 157
-10 56 -19 122 -19 147 0 42 4 48 47 83 26 21 61 52 78 69 17 17 44 38 61 47
26 14 32 14 57 -1 16 -10 61 -49 101 -88z m-846 89 c-10 -2 -28 -2 -40 0 -13
2 -5 4 17 4 22 1 32 -1 23 -4z m-215 -85 c41 -44 97 -144 97 -174 0 -33 -29
-32 -70 2 -40 34 -67 88 -76 153 -8 62 4 66 49 19z m-390 -24 c39 -42 53 -74
31 -74 -26 0 -113 73 -113 96 -1 32 42 20 82 -22z m4962 16 c0 -22 -39 -19
-43 3 -3 15 1 18 20 15 12 -2 23 -10 23 -18z m-2899 -27 c-11 -11 -19 6 -11
24 8 17 8 17 12 0 3 -10 2 -21 -1 -24z m922 26 c24 -8 38 -26 67 -84 20 -41
34 -79 31 -84 -4 -5 -26 -20 -50 -34 -44 -24 -44 -24 -50 -4 -3 14 3 28 19 43
32 29 32 68 0 99 -29 30 -68 32 -112 5 -29 -17 -32 -22 -23 -45 5 -14 17 -36
26 -50 21 -33 13 -93 -17 -117 -31 -26 -105 -24 -119 3 -11 19 -9 20 23 14 27
-5 40 -2 62 18 28 24 29 25 16 68 -7 24 -22 56 -32 71 -18 25 -12 47 10 33 5
-3 17 8 27 24 28 47 66 60 122 40z m-528 -8 c0 -12 -20 -25 -27 -18 -7 7 6 27
18 27 5 0 9 -4 9 -9z m-1534 -113 c-6 -131 -23 -240 -52 -333 -25 -84 -80
-177 -115 -196 -19 -10 -19 -8 5 24 81 107 145 335 147 535 1 34 5 62 10 62 6
0 8 -40 5 -92z m2675 36 c45 -6 52 -15 36 -40 -4 -7 0 -29 9 -50 9 -22 20 -52
25 -69 4 -16 24 -68 43 -115 20 -47 36 -96 36 -110 0 -33 -77 127 -120 251
-28 79 -39 98 -67 117 -19 12 -38 22 -42 22 -4 0 -16 10 -27 21 l-19 21 40
-21 c22 -11 61 -24 86 -27z m1245 4 l19 -23 -25 20 c-14 11 -27 21 -29 22 -2
2 0 3 6 3 5 0 18 -10 29 -22z m-4538 -33 c12 -25 22 -51 22 -59 0 -7 9 -21 19
-30 11 -10 23 -31 26 -47 4 -16 10 -29 15 -29 8 0 33 -53 36 -78 3 -14 -22
-42 -38 -42 -19 0 -63 57 -101 130 -29 56 -37 84 -37 124 0 46 12 76 30 76 3
0 16 -20 28 -45z m5100 -45 c1 -23 0 -23 -8 -5 -5 11 -8 34 -8 50 0 29 0 29 8
5 4 -14 8 -36 8 -50z m-83 -155 c9 -44 21 -88 26 -98 7 -13 0 -41 -26 -106
-19 -49 -35 -94 -35 -100 0 -6 -4 -11 -9 -11 -4 0 -25 -25 -45 -55 -24 -36
-43 -55 -56 -55 -31 0 -25 35 15 79 19 21 35 45 35 53 0 9 7 21 15 28 8 7 15
20 15 30 0 10 7 23 16 31 14 12 44 61 44 74 0 3 -9 5 -19 5 -31 0 -35 19 -7
30 28 10 31 20 17 48 -21 37 -41 86 -41 96 0 6 -9 19 -20 29 -13 11 -20 29
-20 52 0 27 6 37 28 49 l27 14 11 -56 c6 -32 19 -93 29 -137z m-4561 11 c-9
-55 -18 -117 -21 -136 -12 -103 -10 -100 -56 -99 -34 0 -38 2 -21 9 12 5 24
13 28 18 7 11 69 312 68 332 0 8 2 22 6 30 14 35 12 -59 -4 -154z m-884 89 c0
-52 16 -65 72 -58 42 6 46 2 22 -21 -21 -22 -87 -21 -106 2 -23 25 -30 67 -16
96 17 39 28 31 28 -19z m3275 25 c3 -5 2 -10 -4 -10 -5 0 -13 5 -16 10 -3 6
-2 10 4 10 5 0 13 -4 16 -10z m-1010 -30 c3 -5 -3 -10 -15 -10 -12 0 -18 5
-15 10 3 6 10 10 15 10 5 0 12 -4 15 -10z m592 -17 c2 -6 -9 -14 -24 -18 -63
-15 -94 -82 -59 -127 17 -23 74 -23 120 -2 37 18 69 13 60 -10 -3 -8 -23 -26
-44 -41 -37 -26 -42 -26 -73 -14 -102 42 -143 133 -90 203 13 17 26 21 62 21
24 -1 46 -6 48 -12z m434 -2 c13 -12 19 -28 17 -45 -2 -16 4 -30 16 -39 18
-13 16 -15 -29 -31 -59 -19 -71 -20 -58 -3 18 23 35 94 28 116 -8 26 0 27 26
2z m-3602 -78 c-4 -79 9 -193 22 -193 5 0 9 -10 9 -23 0 -12 13 -59 29 -105
30 -84 29 -98 -5 -59 -46 51 -73 141 -80 265 -7 114 0 182 18 182 6 0 9 -24 7
-67z m601 24 c0 -38 -22 -73 -38 -63 -24 15 -4 96 23 96 10 0 15 -10 15 -33z
m2839 11 c44 -71 6 -158 -69 -158 -23 0 -47 8 -61 20 -26 21 -24 23 37 20 57
-2 77 25 68 92 -7 52 3 61 25 26z m2734 -20 c6 -22 5 -22 -8 -4 -17 22 -20 40
-6 32 5 -3 11 -16 14 -28z m-6038 -111 c13 -64 31 -137 39 -162 20 -57 20 -59
-2 -37 -29 29 -65 143 -76 244 -5 44 1 85 11 75 2 -3 15 -57 28 -120z m5813
95 c-8 -41 -68 -40 -68 1 0 20 4 23 36 19 25 -3 34 -9 32 -20z m-4858 -17 c0
-18 -17 -28 -36 -21 -11 4 -12 10 -4 25 11 22 40 18 40 -4z m2590 -17 c0 -5
-4 -8 -10 -8 -5 0 -10 10 -10 23 0 18 2 19 10 7 5 -8 10 -18 10 -22z m-3388
-33 c-7 -14 -12 -32 -12 -40 0 -20 58 -30 86 -14 38 20 50 -2 20 -34 -31 -33
-66 -34 -102 -3 -31 26 -36 74 -14 116 18 33 38 10 22 -25z m2945 29 c-3 -3
-12 -4 -19 -1 -8 3 -5 6 6 6 11 1 17 -2 13 -5z m-3438 -121 c-16 -122 15 -247
77 -306 21 -19 32 -47 20 -47 -16 0 -36 14 -36 25 0 7 -7 15 -14 18 -8 3 -28
32 -43 64 -25 51 -28 72 -31 170 -3 96 -1 115 15 137 10 13 19 23 21 22 1 -2
-3 -39 -9 -83z m146 -35 c4 -24 3 -38 -3 -38 -16 0 -22 27 -21 93 1 57 2 59 9
22 4 -22 10 -57 15 -77z m3779 87 c3 -8 1 -26 -4 -39 -8 -23 -55 -66 -71 -66
-17 0 -9 39 10 49 10 6 24 24 31 41 14 33 25 38 34 15z m-157 -92 c-4 -20 -13
-43 -20 -51 -23 -22 -81 -31 -115 -16 -30 12 -59 50 -48 62 3 3 6 0 6 -7 0 -7
4 -9 10 -6 5 3 20 -1 32 -9 30 -21 54 -20 78 4 18 18 20 28 14 73 l-7 52 28
-33 c23 -27 26 -39 22 -69z m2348 71 c0 -10 -8 -20 -18 -22 -22 -4 -35 27 -16
39 20 12 34 5 34 -17z m305 -15 c0 -18 2 -19 15 -9 33 27 10 -36 -28 -77 -22
-25 -90 -33 -102 -13 -4 7 -16 1 -30 -15 -26 -27 -40 -31 -51 -13 -13 21 36
50 81 47 22 -2 57 4 78 13 42 19 51 42 12 32 -20 -5 -25 -2 -25 13 0 22 18 43
37 43 7 0 13 -10 13 -21z m-6915 -26 c4 -10 9 -45 11 -78 4 -67 -10 -57 -21
15 -3 25 -9 53 -11 63 -3 9 -1 17 4 17 6 0 13 -8 17 -17z m-242 -81 c13 -15
12 -19 -13 -39 -27 -22 -28 -22 -23 -3 3 11 0 26 -6 34 -9 10 -9 16 -1 21 6 4
10 14 9 23 -3 36 3 45 11 14 4 -18 14 -41 23 -50z m3352 68 c3 -5 2 -10 -4
-10 -5 0 -13 5 -16 10 -3 6 -2 10 4 10 5 0 13 -4 16 -10z m-1665 -25 c0 -8 -6
-15 -14 -15 -17 0 -28 14 -19 24 12 12 33 6 33 -9z m318 -36 c-25 -16 -27 -12
-19 30 1 2 8 -2 16 -9 13 -11 13 -15 3 -21z m2282 25 c0 -18 -24 -43 -50 -52
-44 -16 -45 2 -2 31 37 26 52 32 52 21z m-4430 -8 c0 -8 -124 -46 -151 -46
-14 0 -32 -7 -39 -15 -7 -8 -16 -15 -21 -15 -12 0 -11 57 1 65 6 3 10 -3 10
-14 0 -23 10 -27 27 -10 18 18 173 50 173 35z m1560 -16 c12 -22 2 -25 -35
-11 -11 5 -30 5 -42 0 -17 -6 -23 -5 -23 5 0 20 11 26 51 26 28 0 41 -5 49
-20z m134 -31 c-2 -4 20 -15 48 -24 30 -10 64 -30 78 -46 l25 -28 44 20 c24
10 46 18 48 16 7 -7 -67 -67 -83 -67 -8 0 -23 14 -32 30 -20 35 -108 82 -139
74 -28 -8 -48 19 -32 44 11 17 14 18 30 4 10 -9 16 -19 13 -23z m-727 -1 c-3
-7 -5 -2 -5 12 0 14 2 19 5 13 2 -7 2 -19 0 -25z m1121 11 c-2 -6 -8 -10 -13
-10 -5 0 -11 4 -13 10 -2 6 4 11 13 11 9 0 15 -5 13 -11z m-1338 -22 c0 -19
-10 -27 -26 -20 -11 4 -12 9 -3 19 15 18 29 18 29 1z m5831 -20 c26 -47 -67
-438 -114 -479 -20 -18 -67 -25 -67 -10 0 5 7 31 16 58 9 27 19 67 23 89 30
154 74 352 82 361 13 16 47 6 60 -19z m-6907 -18 c-9 -16 -20 -10 -21 12 -2
17 1 18 12 9 8 -7 12 -16 9 -21z m2336 23 c0 -4 -10 -9 -22 -9 -18 -2 -20 0
-8 7 18 12 30 13 30 2z m-475 -53 c5 -5 -4 -9 -22 -9 -32 0 -48 11 -36 24 8 7
44 -2 58 -15z m5467 -15 c-3 -17 -8 -22 -15 -15 -7 7 -6 15 3 26 17 20 18 19
12 -11z m-6532 -19 c0 -8 -9 -15 -20 -15 -13 0 -18 5 -14 15 4 8 12 15 20 15
8 0 14 -7 14 -15z m6800 -8 c0 -7 8 -29 19 -49 14 -29 15 -38 5 -42 -7 -3 -17
1 -22 7 -14 18 -24 97 -12 97 5 0 10 -6 10 -13z m-5747 -18 c34 -18 66 -61 67
-91 0 -21 6 -28 29 -33 17 -3 39 -2 50 4 27 15 31 14 31 -7 0 -39 -48 -54
-104 -32 -19 7 -29 21 -38 56 -16 57 -44 79 -91 70 -43 -8 -52 2 -24 25 26 21
49 24 80 8z m5583 -55 c1 -9 9 -23 17 -32 12 -13 16 -55 20 -176 5 -170 -6
-251 -38 -286 -15 -16 -16 -25 -5 -72 17 -75 20 -93 30 -183 10 -96 27 -147
40 -125 6 8 10 26 10 39 0 13 3 22 6 18 9 -8 -5 -82 -20 -102 -11 -15 -13 -14
-23 7 -19 38 -26 62 -30 93 -2 17 -8 50 -13 75 -10 45 -29 160 -35 212 -4 35
-13 48 -32 48 -9 0 -13 3 -9 8 4 4 11 6 14 5 13 -3 62 31 62 43 0 6 -8 14 -17
16 -16 4 -18 19 -18 134 1 107 4 134 19 157 16 24 17 27 2 27 -23 0 -20 33 4
48 23 14 18 35 -5 25 -10 -3 -15 1 -15 14 0 10 -9 25 -20 33 -33 24 -23 29 17
9 20 -10 38 -26 39 -35z m-6786 27 c0 -4 -11 -25 -25 -45 -23 -34 -30 -84 -14
-96 3 -3 3 -14 -1 -25 -7 -19 -7 -19 -17 0 -6 11 -13 36 -17 56 -5 30 -1 42
26 77 31 40 48 52 48 33z m-415 -38 c-16 -9 -32 -19 -35 -22 -13 -16 -40 -32
-40 -24 0 10 79 63 95 63 5 -1 -3 -8 -20 -17z m4008 -65 c8 -29 27 -87 42
-128 15 -41 28 -79 29 -85 2 -5 6 -22 10 -37 15 -51 -1 -53 -17 -3 -37 115
-71 201 -97 246 -29 48 -29 59 0 59 11 0 22 -16 33 -52z m-2423 27 c7 -8 19
-15 26 -15 8 0 14 -7 14 -15 0 -23 -37 -18 -54 7 -26 36 -13 56 14 23z m1865
-5 c0 -14 -3 -15 -77 -49 -74 -32 -130 -70 -122 -83 4 -7 14 -2 26 13 11 13
17 18 13 11 -4 -8 2 -23 13 -35 29 -31 50 -116 31 -128 -50 -31 -78 -63 -73
-85 4 -16 1 -24 -13 -28 -32 -10 -150 1 -172 16 -36 25 -2 43 75 40 101 -5
109 5 90 124 l-8 50 -47 -3 c-25 -1 -73 -5 -106 -8 -33 -3 -94 -8 -135 -11
-41 -3 -81 -7 -87 -9 -7 -2 -13 0 -13 5 0 6 -9 10 -20 10 -11 0 -20 -4 -20
-10 0 -15 -57 -12 -72 4 -11 12 -16 12 -31 -2 -17 -15 -18 -14 -24 6 -3 14
-13 22 -27 22 -26 0 -46 18 -46 41 0 28 16 31 73 16 88 -25 138 -27 262 -12
66 8 156 20 200 25 47 6 102 20 132 34 28 14 64 28 79 32 15 4 39 13 53 20 29
16 46 13 46 -6z m-1511 -31 c-3 -5 -10 -7 -15 -3 -5 3 -7 10 -3 15 3 5 10 7
15 3 5 -3 7 -10 3 -15z m4846 -18 c0 -24 -25 -45 -45 -37 -18 7 -20 42 -2 49
27 12 47 7 47 -12z m507 -3 c-3 -8 -6 -5 -6 6 -1 11 2 17 5 13 3 -3 4 -12 1
-19z m-5433 -28 c7 0 20 -8 29 -18 13 -14 14 -21 5 -30 -9 -9 -8 -16 5 -30 32
-35 16 -92 -25 -92 -14 0 -16 6 -12 29 5 22 -1 36 -26 65 -18 20 -36 33 -42
30 -5 -4 -8 1 -6 10 1 10 8 17 13 18 6 0 16 10 24 21 9 13 16 16 19 9 2 -7 9
-12 16 -12z m2019 4 c-3 -8 -11 -13 -18 -10 -7 2 -23 -1 -36 -8 -13 -7 -71
-18 -129 -25 -58 -7 -115 -17 -127 -22 -25 -9 -56 -2 -47 12 3 5 14 9 24 9 11
0 39 7 62 15 34 11 182 36 265 44 7 1 10 -6 6 -15z m3426 -135 c2 -106 12
-147 44 -179 22 -22 28 -33 20 -41 -17 -17 -52 7 -69 46 -10 25 -14 74 -13
172 1 101 4 127 10 98 4 -22 8 -65 8 -96z m-7464 110 c11 -17 -1 -21 -15 -4
-8 9 -8 15 -2 15 6 0 14 -5 17 -11z m1838 -3 c3 -8 -1 -20 -9 -26 -38 -33 3
-70 61 -56 32 8 32 -9 1 -29 -34 -23 -74 -15 -94 17 -13 22 -14 33 -3 67 12
41 34 54 44 27z m-1643 -9 c0 -2 -10 -12 -21 -23 -22 -19 -22 -19 -10 4 10 18
31 31 31 19z m7687 -162 c5 -67 4 -78 -14 -95 -20 -18 -21 -18 -32 6 -8 17 -8
31 -1 44 13 24 13 43 0 35 -5 -3 -10 0 -10 8 0 8 7 17 15 21 21 8 19 25 -10
82 -14 27 -25 50 -25 52 0 1 16 -16 36 -37 32 -37 36 -47 41 -116z m-4333 91
c18 -62 26 -205 11 -206 -9 -1 -18 32 -44 168 -9 50 -9 65 1 77 7 8 14 14 15
15 1 0 9 -24 17 -54z m-1950 28 c5 -13 16 -15 59 -10 63 8 46 -6 -30 -24 -56
-13 -73 -9 -73 19 0 33 33 44 44 15z m966 3 c-18 -16 -118 -42 -127 -33 -17
17 46 42 117 45 21 1 22 -1 10 -12z m311 -114 c1 -27 0 -75 -1 -108 -1 -33 3
-73 9 -88 6 -16 12 -46 13 -68 1 -23 6 -39 14 -39 16 0 22 -17 29 -87 5 -49 3
-62 -14 -83 -15 -19 -23 -22 -32 -13 -9 9 -7 22 6 56 17 44 16 48 -5 116 -12
39 -26 73 -31 76 -13 8 -11 -9 2 -22 6 -6 8 -17 3 -25 -6 -9 -10 -6 -15 12
-11 41 -10 62 3 54 8 -5 9 -2 3 12 -9 23 -23 212 -17 237 2 9 11 17 18 17 10
0 14 -14 15 -47z m419 35 c0 -4 -12 -10 -27 -13 -16 -4 -35 -10 -44 -15 -12
-6 -61 -7 -118 0 -11 1 11 13 46 26 40 14 143 16 143 2z m-3297 -15 c-7 -2
-19 -2 -25 0 -7 3 -2 5 12 5 14 0 19 -2 13 -5z m2747 -29 c0 -8 -4 -12 -10 -9
-5 3 -10 0 -10 -8 0 -19 -51 -29 -69 -14 -11 9 -6 15 25 29 49 22 64 22 64 2z
m195 -71 c27 -146 44 -223 55 -242 6 -12 26 -23 47 -27 39 -7 201 9 303 31 36
8 74 14 85 12 18 -2 21 5 25 58 3 33 11 69 17 81 7 12 13 38 15 58 1 21 7 36
15 36 7 0 14 -6 14 -12 1 -7 3 -26 4 -43 2 -16 9 -57 17 -89 11 -50 17 -60 38
-63 25 -4 84 -53 101 -86 15 -27 -16 -33 -58 -11 -26 14 -37 16 -40 7 -3 -9
-12 -9 -29 -2 -18 6 -45 4 -90 -6 -36 -8 -84 -15 -107 -15 -23 0 -58 -5 -77
-10 -19 -6 -92 -13 -162 -17 l-128 -6 -24 53 c-13 29 -22 59 -19 66 3 8 0 14
-7 14 -7 0 -10 7 -6 16 3 9 3 20 0 26 -4 6 -8 27 -9 47 -1 20 -7 71 -13 115
-7 43 -9 83 -6 88 12 19 27 -11 39 -79z m-2671 67 c-5 -5 -25 -13 -44 -16 -33
-6 -34 -6 -15 9 22 18 76 24 59 7z m2366 -23 c0 -15 -55 -35 -105 -39 -21 -2
-30 1 -30 12 0 10 14 16 44 18 24 2 53 8 65 12 12 5 22 9 24 9 1 1 2 -5 2 -12z
m860 -17 c-20 -12 -33 -1 -19 16 9 11 15 12 23 4 8 -8 7 -13 -4 -20z m1010 0
c0 -5 -19 -10 -42 -9 -37 1 -39 2 -18 9 36 12 60 12 60 0z m-2700 -20 c0 -17
-7 -20 -52 -21 -29 0 -62 -2 -73 -3 -11 -2 -56 -6 -100 -10 -44 -4 -89 -9
-100 -12 -15 -4 -14 -1 5 10 26 14 41 17 195 40 125 19 125 19 125 -4z m2695
-40 c-3 -5 -10 -10 -16 -10 -5 0 -9 5 -9 10 0 6 7 10 16 10 8 0 12 -4 9 -10z
m-255 -14 c0 -3 -4 -8 -10 -11 -5 -3 -10 -1 -10 4 0 6 5 11 10 11 6 0 10 -2
10 -4z m-2959 -27 c-41 -10 -76 -17 -79 -15 -6 7 91 34 123 34 17 0 -1 -8 -44
-19z m2859 -8 c-8 -5 -26 -12 -40 -15 l-25 -7 25 15 c14 9 32 15 40 15 13 0
13 -1 0 -8z m-330 -32 c-111 -37 -159 -39 -112 -3 9 7 37 14 62 15 25 1 59 5
75 9 68 17 55 7 -25 -21z m-2665 6 c-38 -14 -84 -20 -74 -11 2 3 17 7 33 10
16 3 31 8 34 11 3 3 15 5 26 5 13 -1 6 -6 -19 -15z m2925 1 c0 -3 -4 -8 -10
-11 -5 -3 -10 -1 -10 4 0 6 5 11 10 11 6 0 10 -2 10 -4z m-3774 -38 c4 -4 0
-10 -8 -13 -18 -7 -128 22 -128 34 0 8 125 -11 136 -21z m3744 22 c0 -5 -4
-10 -10 -10 -5 0 -33 -11 -62 -24 -29 -12 -61 -26 -70 -29 -21 -7 -23 -29 -7
-60 27 -52 95 -147 106 -147 6 0 11 -8 10 -18 0 -10 23 -59 52 -110 30 -51 51
-95 49 -98 -8 -8 -228 326 -228 346 0 5 -11 21 -25 36 -14 15 -25 31 -25 36 0
8 56 36 85 43 6 1 26 9 45 17 69 30 80 33 80 18z m680 -35 c0 -8 -4 -15 -10
-15 -5 0 -7 7 -4 15 4 8 8 15 10 15 2 0 4 -7 4 -15z m2739 6 c17 -11 7 -41
-13 -41 -19 0 -29 17 -22 35 6 17 15 18 35 6z m582 -109 c-5 -20 -12 -44 -15
-53 -5 -11 3 -25 23 -42 39 -33 39 -38 -1 -25 -87 28 -91 34 -63 88 8 16 12
36 9 45 -4 9 1 24 10 34 10 11 14 26 10 37 -3 10 3 4 15 -14 17 -27 19 -39 12
-70z m-7201 68 c0 -5 -4 -10 -10 -10 -5 0 -10 5 -10 10 0 6 5 10 10 10 6 0 10
-4 10 -10z m3977 -63 c-2 -6 -13 -12 -25 -14 -20 -3 -21 0 -12 17 10 20 44 17
37 -3z m-4343 -46 c3 -5 -5 -16 -19 -25 -28 -19 -33 -57 -10 -76 19 -16 19
-39 0 -64 -8 -11 -15 -30 -15 -41 0 -24 31 -65 49 -65 20 0 3 -17 -21 -23 -64
-14 -179 -48 -227 -66 -60 -23 -70 -22 -46 3 15 15 15 16 -7 16 -21 1 -22 2
-5 14 21 16 23 30 3 23 -10 -4 -13 -1 -10 7 3 7 -2 20 -10 29 -21 21 -20 40 4
55 18 11 19 10 13 -18 -7 -36 2 -38 28 -7 19 23 25 42 10 32 -5 -3 -12 -1 -16
4 -3 6 10 17 28 26 58 27 75 105 23 105 -17 0 -22 -6 -21 -27 0 -22 -5 -29
-22 -31 -19 -3 -23 1 -23 22 0 19 -5 26 -20 26 -30 0 -24 20 10 31 17 6 30 14
30 19 0 6 50 16 170 34 50 7 99 6 104 -3z m1816 -52 c0 -11 -27 -12 -34 0 -3
4 -3 11 0 14 8 8 34 -3 34 -14z m2400 8 c0 -2 -10 -12 -22 -23 l-23 -19 19 23
c18 21 26 27 26 19z m2757 -49 c-3 -7 -5 -2 -5 12 0 14 2 19 5 13 2 -7 2 -19
0 -25z m-2533 -3 c3 -9 0 -15 -8 -15 -7 0 -13 7 -13 15 0 8 4 15 8 15 4 0 9
-7 13 -15z m-2634 -10 c0 -8 -4 -15 -10 -15 -5 0 -10 7 -10 15 0 8 5 15 10 15
6 0 10 -7 10 -15z m416 -55 c16 0 39 -7 50 -15 18 -14 17 -14 -11 -5 -16 5
-54 11 -83 13 -29 2 -56 8 -60 12 -4 4 11 5 33 2 22 -4 54 -7 71 -7z m2994
-14 c0 5 4 5 8 -1 4 -5 24 -18 45 -27 28 -14 37 -24 37 -43 0 -19 -5 -25 -22
-25 -39 0 -68 12 -68 26 0 8 -7 17 -16 21 -13 5 -13 7 -2 14 10 7 7 11 -10 15
-18 5 -20 9 -11 20 9 11 15 11 25 3 8 -6 14 -8 14 -3z m-2860 -43 c0 -19 -6
-16 -24 12 -17 25 -16 25 4 13 11 -7 20 -18 20 -25z m-2290 -51 c0 -8 -5 -12
-12 -10 -16 6 -47 61 -40 72 6 11 52 -43 52 -62z m3173 47 c-6 -6 -66 -38
-134 -73 -68 -34 -161 -83 -207 -109 -80 -46 -84 -47 -112 -32 -30 16 -97 39
-142 49 -16 4 -28 11 -28 16 0 12 6 13 28 1 49 -27 173 -39 202 -21 10 6 11
10 3 10 -19 0 -16 17 7 40 11 11 20 26 20 33 0 8 19 12 63 12 42 0 70 5 82 15
10 8 25 14 34 12 9 -1 54 11 101 27 99 35 97 34 83 20z m-3118 -39 c3 -5 1
-10 -4 -10 -6 0 -11 5 -11 10 0 6 2 10 4 10 3 0 8 -4 11 -10z m4378 -11 c-23
-10 -106 -31 -185 -46 -80 -15 -148 -33 -154 -40 -9 -10 -13 -11 -16 -3 -3 9
-27 8 -92 -5 -49 -9 -90 -14 -92 -12 -3 3 146 37 251 57 28 5 61 12 75 15 14
3 53 10 87 16 35 6 82 17 105 24 61 19 70 17 21 -6z m-1113 -9 c0 -22 -110
-45 -117 -24 -4 12 48 31 90 33 15 1 27 -4 27 -9z m-590 -24 c0 -3 -4 -8 -10
-11 -5 -3 -10 -1 -10 4 0 6 5 11 10 11 6 0 10 -2 10 -4z m600 -51 c6 -15 17
-25 29 -25 10 0 24 -7 32 -16 10 -13 10 -17 -2 -25 -37 -23 -79 7 -79 58 0 39
7 42 20 8z m-3455 -5 c23 -9 22 -10 -67 -34 -32 -9 -65 -19 -75 -23 -15 -5
-15 -3 3 16 19 20 85 50 109 50 6 0 19 -4 30 -9z m2622 4 c-3 -3 -12 -4 -19
-1 -8 3 -5 6 6 6 11 1 17 -2 13 -5z m713 -8 c0 -28 -22 -75 -39 -81 -9 -3 -36
-6 -60 -7 -35 -1 -47 3 -62 23 -23 29 -25 50 -4 43 8 -4 15 -9 15 -14 0 -4 10
-11 23 -17 30 -14 84 12 91 44 7 24 36 33 36 9z m-920 -76 c0 -10 -4 -21 -9
-24 -12 -8 -22 20 -15 39 8 19 24 9 24 -15z m-2472 8 c13 -13 16 -47 6 -71 -6
-17 -55 -11 -67 10 -5 7 -12 11 -18 8 -11 -7 -12 15 -1 32 6 10 45 30 63 32 3
1 10 -4 17 -11z m3857 1 c-4 -6 -10 -21 -14 -34 -6 -24 -6 -24 -31 -5 -20 15
-22 20 -11 34 15 18 66 23 56 5z m-3705 -8 c0 -6 -8 -16 -19 -23 -18 -13 -61
-84 -61 -102 0 -15 -42 -56 -57 -56 -18 0 -16 16 5 32 9 7 22 24 28 38 6 14
19 42 28 63 17 40 76 77 76 48z m2470 -16 c0 -21 -24 -45 -44 -45 -13 0 -5 28
9 34 8 3 15 12 15 21 0 8 5 15 10 15 6 0 10 -11 10 -25z m870 10 c0 -11 -12
-15 -47 -15 -46 0 -50 13 -8 23 39 9 55 7 55 -8z m130 -81 c-11 -37 -25 -73
-31 -81 -6 -7 -13 -27 -14 -45 -2 -18 -8 -32 -13 -31 -6 1 -17 -15 -26 -36 -8
-22 -20 -42 -25 -45 -5 -4 -13 -20 -16 -37 -5 -23 -9 -28 -16 -18 -6 10 -9 7
-9 -12 0 -15 -7 -32 -15 -39 -9 -7 -14 -19 -11 -27 3 -8 1 -11 -4 -8 -6 3 -10
-2 -10 -12 0 -10 -7 -29 -16 -41 -9 -13 -13 -31 -9 -43 5 -13 3 -19 -3 -15 -5
3 -13 -6 -17 -21 -3 -15 -16 -35 -27 -45 -14 -12 -16 -18 -8 -18 11 0 11 -3 2
-12 -7 -7 -12 -22 -12 -35 0 -13 -5 -22 -11 -21 -6 2 -16 -10 -22 -27 -5 -16
-16 -34 -23 -38 -8 -4 -14 -14 -14 -21 0 -8 -7 -17 -16 -20 -9 -3 -14 -3 -12
1 2 5 12 25 21 45 9 20 21 39 27 43 5 3 10 13 10 22 0 17 101 226 113 231 4 2
7 15 7 28 0 13 5 24 10 24 6 0 10 6 10 14 0 8 33 82 74 163 40 81 84 175 97
207 30 77 36 57 9 -30z m335 65 c10 -15 -1 -23 -20 -15 -9 3 -13 10 -10 16 8
13 22 13 30 -1z m-745 -9 c0 -5 -5 -10 -11 -10 -5 0 -7 5 -4 10 3 6 8 10 11
10 2 0 4 -4 4 -10z m-465 -10 c3 -5 -1 -10 -9 -10 -9 0 -16 5 -16 10 0 6 4 10
9 10 6 0 13 -4 16 -10z m772 -52 c-3 -8 -6 -5 -6 6 -1 11 2 17 5 13 3 -3 4
-12 1 -19z m1947 8 c-10 -8 -21 -12 -24 -10 -5 6 21 24 34 24 6 0 1 -6 -10
-14z m-2779 -16 c-3 -5 -13 -10 -21 -10 -8 0 -14 5 -14 10 0 6 9 10 21 10 11
0 17 -4 14 -10z m577 -17 c20 -41 61 -43 97 -4 48 51 69 34 34 -28 -21 -37
-42 -45 -89 -36 -43 8 -74 37 -74 70 0 33 16 32 32 -2z m733 -57 c35 18 44 11
20 -16 -13 -14 -16 -28 -11 -51 l6 -32 -21 19 c-12 10 -37 44 -57 74 -20 30
-42 61 -49 68 -7 7 -13 16 -13 20 0 4 22 -16 49 -45 47 -51 48 -52 76 -37z
m-865 40 c0 -40 -31 -67 -80 -73 -38 -4 -48 -1 -67 19 -24 26 -33 59 -17 65 6
2 16 -8 22 -22 7 -14 18 -28 26 -31 16 -6 64 21 84 48 18 25 32 22 32 -6z
m-677 -72 c-3 -10 -15 -1 -34 26 -39 53 -37 61 5 21 19 -19 32 -40 29 -47z
m300 46 c7 -28 60 -27 86 2 19 20 21 20 27 3 10 -26 -38 -65 -79 -65 -39 0
-77 24 -77 49 0 35 34 44 43 11z m737 -1 c0 -14 -30 -38 -47 -39 -20 0 -15 38
5 43 31 8 42 7 42 -4z m-841 -29 c23 -54 -3 -75 -62 -47 -33 15 -34 20 -2 37
14 7 25 19 25 27 0 24 25 13 39 -17z m596 -9 c6 -1 4 -5 -3 -10 -7 -4 -25 -6
-39 -3 -16 3 -21 7 -13 12 7 4 20 6 29 5 9 -2 21 -4 26 -4z m1102 -18 c-9 -9
-19 -14 -23 -11 -10 10 6 28 24 28 15 0 15 -1 -1 -17z m1035 -5 c-7 -7 -12 -8
-12 -2 0 14 12 26 19 19 2 -3 -1 -11 -7 -17z m-3597 -76 c-8 -8 -13 0 -20 33
l-7 30 16 -29 c9 -16 14 -31 11 -34z m2644 6 c-10 -29 -19 -63 -19 -75 0 -19
-25 -43 -44 -43 -13 0 -4 28 14 45 11 10 20 22 20 26 0 11 39 99 44 99 2 0 -4
-24 -15 -52z m-1006 36 c12 -4 13 -11 5 -35 -12 -36 -41 -53 -87 -51 -50 2
-67 10 -79 37 -10 21 -9 25 5 25 9 0 24 -7 34 -16 25 -22 77 -10 91 22 13 27
11 26 31 18z m3272 -20 c-27 -7 -59 -18 -70 -23 -17 -8 -38 -9 -77 -2 -5 0 -8
9 -8 19 0 15 12 17 103 18 101 0 102 0 52 -12z m-1345 -14 c0 -5 -5 -10 -11
-10 -5 0 -7 5 -4 10 3 6 8 10 11 10 2 0 4 -4 4 -10z m-2350 -15 c10 -12 10
-15 -4 -15 -9 0 -16 7 -16 15 0 8 2 15 4 15 2 0 9 -7 16 -15z m1077 -35 c46
-46 83 -64 83 -40 0 6 7 10 15 10 8 0 15 -7 15 -15 0 -10 -11 -15 -37 -16 -21
-1 -41 -1 -45 0 -5 0 -8 -4 -8 -10 0 -8 -5 -8 -15 1 -8 7 -12 16 -9 21 3 5 -8
26 -25 46 -28 34 -38 53 -27 53 2 0 26 -22 53 -50z m-937 24 c0 -38 -75 -67
-124 -48 -25 9 -19 24 9 24 14 0 42 9 62 20 45 24 53 25 53 4z m-480 -23 c0
-10 -7 -24 -15 -31 -20 -17 -31 10 -15 39 12 24 30 19 30 -8z m110 -13 c0 -15
-19 -8 -29 11 -14 25 0 37 16 15 7 -10 13 -21 13 -26z m103 -9 c-4 -4 -27 -11
-50 -15 -61 -9 -57 16 5 36 39 12 48 13 50 1 2 -7 0 -17 -5 -22z m-405 19 c-6
-18 -32 -21 -97 -12 l-56 8 40 7 c71 11 117 10 113 -3z m2405 5 c-7 -2 -19 -2
-25 0 -7 3 -2 5 12 5 14 0 19 -2 13 -5z m-2673 -13 c0 -5 -5 -10 -11 -10 -5 0
-7 5 -4 10 3 6 8 10 11 10 2 0 4 -4 4 -10z m1055 -11 c0 -8 -12 -15 -27 -17
-31 -4 -37 12 -10 27 21 13 37 9 37 -10z m1399 1 c-33 -12 -181 -21 -164 -10
8 5 38 10 65 10 28 0 56 4 64 9 7 5 23 6 34 3 20 -5 20 -6 1 -12z m-928 -5
c13 -33 -6 -86 -39 -106 -18 -10 -39 -18 -47 -16 -26 4 -16 26 20 45 29 14 35
23 38 55 3 38 18 49 28 22z m-1746 -6 c-30 -5 -65 -14 -78 -21 -17 -9 -25 -9
-34 0 -14 14 -1 20 57 25 80 7 112 5 55 -4z m108 4 c-10 -2 -26 -2 -35 0 -10
3 -2 5 17 5 19 0 27 -2 18 -5z m886 -28 c-18 -13 -84 -21 -84 -10 0 9 61 36
70 30 5 -3 12 0 16 7 6 9 9 9 12 -1 2 -7 -4 -19 -14 -26z m-1208 -12 c27 -29
58 -93 49 -101 -3 -3 -5 -1 -5 4 0 5 -18 31 -40 58 -37 44 -48 66 -35 66 3 0
17 -12 31 -27z m924 7 c0 -5 -4 -10 -10 -10 -5 0 -10 5 -10 10 0 6 5 10 10 10
6 0 10 -4 10 -10z m-353 -67 c2 -6 -3 -13 -12 -16 -10 -5 -15 0 -15 14 0 21
21 22 27 2z m698 -9 c21 -22 30 -25 59 -20 19 4 39 13 46 21 12 14 30 12 30
-4 0 -4 -9 -17 -20 -29 -42 -45 -150 -16 -150 40 0 24 7 23 35 -8z m295 -18
c0 -25 -5 -48 -11 -51 -6 -4 -37 -9 -70 -12 -48 -5 -59 -3 -59 9 0 10 17 20
46 27 37 9 48 18 57 41 17 46 37 38 37 -14z m-545 -149 c22 -26 81 -82 132
-124 51 -42 90 -80 87 -84 -5 -8 -107 57 -112 72 -2 5 -9 9 -15 9 -18 1 -45
28 -127 125 -69 82 -130 167 -130 180 0 6 104 -106 165 -178z m125 166 c-1
-30 -16 -53 -40 -62 -38 -13 -86 0 -82 22 2 11 -2 15 -13 11 -10 -4 -15 0 -15
10 0 20 24 21 40 1 14 -17 56 -11 80 11 16 15 30 18 30 7z m3148 -91 c24 -52
28 -71 21 -95 -5 -16 -6 -34 -2 -40 4 -6 0 -8 -11 -4 -10 4 -22 7 -27 7 -5 0
-9 9 -9 20 0 13 -11 25 -27 33 -16 6 -32 17 -36 24 -5 8 -11 12 -15 9 -4 -2
-16 5 -26 15 -11 11 -14 19 -8 19 7 0 12 7 12 15 0 8 7 15 15 15 8 0 15 5 15
10 0 6 -5 10 -11 10 -7 0 0 11 15 25 36 33 55 21 94 -63z m-2288 62 c0 -33
-23 -104 -39 -118 -9 -8 -35 -18 -57 -22 -34 -5 -45 -2 -69 18 -39 34 -26 53
21 30 32 -15 38 -15 62 -1 15 8 31 29 37 49 12 42 23 60 36 60 5 0 9 -7 9 -16z
m925 -13 c62 -7 65 -9 25 -11 -25 -1 -55 -1 -67 0 -24 1 -43 -25 -43 -60 0
-12 -4 -18 -10 -15 -5 3 -10 -3 -10 -13 0 -50 -45 -24 -64 36 -11 34 -30 27
-76 -28 -23 -27 -47 -50 -53 -50 -7 1 -6 5 3 13 8 7 27 28 41 47 64 85 91 101
154 93 17 -3 62 -8 100 -12z m-1655 -45 c0 -33 -64 -54 -94 -31 -24 18 -21 22
27 28 21 3 41 8 44 11 11 11 23 6 23 -8z m-2752 -80 c70 -66 93 -82 170 -121
86 -43 82 -59 -7 -25 -60 22 -191 129 -191 155 0 7 -6 16 -12 18 -7 3 -9 6 -5
6 5 1 25 -14 45 -33z m1251 17 c-1 -10 -5 -29 -9 -43 -7 -21 -8 -19 -9 18 -1
23 4 42 9 42 6 0 10 -8 9 -17z m1655 -38 c-15 -39 -107 -52 -135 -19 -9 11 -2
13 40 11 36 -1 55 3 67 15 19 19 36 15 28 -7z m598 -46 c-4 -64 -10 -78 -42
-94 -41 -21 -96 -19 -120 5 -37 37 -18 52 35 28 40 -18 72 2 86 54 14 53 18
60 32 55 7 -2 10 -21 9 -48z m-194 24 c2 -9 -9 -13 -37 -13 -46 0 -52 6 -18
20 28 11 49 9 55 -7z m1022 -48 c0 -8 -4 -15 -10 -15 -5 0 -10 7 -10 15 0 8 5
15 10 15 6 0 10 -7 10 -15z m-1585 -16 c4 -6 5 -12 2 -15 -7 -7 -37 7 -37 17
0 13 27 11 35 -2z m-2862 -41 c23 -18 60 -42 82 -53 43 -22 81 -55 64 -55 -36
0 -171 87 -190 121 -14 26 -6 24 44 -13z m5617 12 c0 -12 -28 -25 -36 -17 -9
9 6 27 22 27 8 0 14 -5 14 -10z m-3373 -6 c-3 -3 -12 -4 -19 -1 -8 3 -5 6 6 6
11 1 17 -2 13 -5z m216 -72 c16 -17 18 -25 9 -34 -16 -16 -37 -3 -60 34 -13
22 -14 29 -2 43 12 15 14 15 23 -2 5 -10 19 -28 30 -41z m1667 43 c0 -8 -7
-15 -15 -15 -26 0 -18 20 13 29 1 1 2 -6 2 -14z m-2713 -65 c-6 -49 -4 -62 8
-66 20 -8 19 -24 0 -24 -23 0 -40 43 -26 68 6 11 11 34 11 51 0 17 3 31 6 31
4 0 4 -27 1 -60z m1541 2 c3 -27 0 -32 -17 -32 -14 0 -21 6 -21 19 0 56 33 67
38 13z m482 28 c13 -9 13 -12 -3 -24 -20 -16 -67 -9 -67 9 0 8 10 16 23 18 12
2 24 5 27 5 3 1 12 -3 20 -8z m205 -48 c-1 -69 -22 -92 -86 -92 -41 0 -50 4
-68 29 -33 46 -23 57 19 21 13 -11 33 -20 46 -20 31 0 64 45 64 87 0 23 4 33
13 30 7 -2 12 -23 12 -55z m-1423 12 c-15 -7 -52 -14 -82 -18 -44 -4 -49 -4
-25 4 17 6 40 11 53 12 12 1 22 6 22 10 0 4 9 8 20 8 11 0 20 6 20 13 0 8 4 7
10 -3 7 -12 3 -18 -18 -26z m5572 11 c18 -10 41 -13 61 -9 51 9 54 -13 9 -52
-40 -34 -66 -45 -44 -19 10 13 9 15 -11 15 -13 0 -49 -7 -79 -15 -124 -33
-151 -6 -30 30 68 20 73 23 52 34 -12 6 -22 16 -22 21 0 15 31 12 64 -5z
m-3244 -70 c0 -5 16 -33 35 -61 35 -51 38 -77 9 -88 -9 -3 -14 1 -14 13 0 11
-13 50 -29 87 -16 38 -32 80 -36 94 -6 23 -5 23 14 -5 12 -16 21 -34 21 -40z
m-4350 39 c0 -2 -7 -4 -15 -4 -8 0 -15 4 -15 10 0 5 7 7 15 4 8 -4 15 -8 15
-10z m2448 -38 c19 -18 4 -46 -25 -46 -41 0 -82 28 -83 56 0 15 90 6 108 -10z
m-800 7 c-16 -2 -40 -2 -55 0 -16 2 -3 4 27 4 30 0 43 -2 28 -4z m-148 -13
c-44 -10 -194 -20 -187 -13 6 6 135 20 187 21 l35 0 -35 -8z m800 -77 c0 -7
-8 -13 -18 -13 -23 0 -47 42 -38 66 6 16 10 15 31 -11 13 -17 24 -36 25 -42z
m870 49 c0 -22 -43 -48 -60 -37 -8 5 -3 15 16 31 35 28 44 30 44 6z m130 -47
c0 -23 -58 -49 -76 -34 -19 16 -18 24 9 37 33 16 67 15 67 -3z m3733 1 c12 -8
40 -17 61 -20 21 -4 48 -9 60 -12 28 -7 75 -12 109 -13 53 -2 26 -31 -58 -66
-44 -18 -132 -55 -196 -83 -118 -52 -169 -69 -169 -57 0 11 102 199 127 233
27 36 34 38 66 18z m-3560 -17 c9 -32 -4 -87 -23 -104 -10 -9 -36 -19 -58 -22
-34 -4 -44 -1 -73 25 -30 27 -32 31 -16 37 11 5 25 1 36 -9 40 -36 94 -6 107
58 7 40 19 47 27 15z m-883 -4 c0 -9 -15 -23 -34 -32 -33 -15 -37 -15 -61 1
-21 14 -24 20 -15 29 10 9 14 9 17 0 6 -18 38 -16 53 2 16 19 40 19 40 0z
m382 -1 c4 -3 8 -16 8 -30 0 -14 4 -22 10 -19 13 8 13 5 -4 -41 -16 -48 -4
-64 48 -64 41 0 68 -9 61 -20 -3 -5 -1 -11 5 -15 5 -3 10 -1 10 4 0 6 9 11 19
11 17 0 18 -3 8 -23 -7 -12 -30 -44 -51 -69 -22 -26 -49 -71 -61 -100 -17 -44
-26 -54 -48 -56 -21 -3 -26 0 -21 12 3 9 2 16 -4 16 -5 0 -13 17 -17 37 -4 21
-10 42 -13 48 -8 12 -9 17 -11 55 -1 25 -5 30 -25 30 -14 0 -33 10 -43 23 -10
13 -36 30 -58 37 -22 7 -34 15 -27 17 6 3 12 10 12 18 0 7 13 15 29 18 27 6
29 9 25 39 -4 26 0 39 21 60 23 25 31 27 72 22 26 -3 50 -7 55 -10z m1600 -14
c-9 -16 -20 -30 -24 -30 -5 0 -8 -7 -8 -15 0 -8 -4 -15 -8 -15 -4 0 -21 -22
-37 -50 -21 -36 -35 -50 -52 -50 -39 0 -35 18 12 50 25 17 63 56 85 86 45 60
58 70 32 24z m3458 6 c0 -3 -4 -8 -10 -11 -5 -3 -10 -1 -10 4 0 6 5 11 10 11
6 0 10 -2 10 -4z m-5592 -55 c30 11 42 4 42 -25 0 -49 -40 -54 -84 -10 -22 22
-21 48 1 35 10 -5 26 -5 41 0z m-598 -76 c5 -3 14 -14 20 -24 8 -16 6 -17 -17
-13 -14 3 -24 1 -21 -4 3 -5 0 -25 -8 -44 l-12 -35 -1 46 -1 46 -115 13 c-88
10 -117 10 -128 1 -12 -9 -16 -8 -20 2 -4 10 4 14 25 15 16 0 32 3 35 5 6 7
231 -1 243 -8z m527 -18 c10 -10 -17 -27 -33 -20 -7 2 -15 11 -18 19 -4 11 1
14 19 11 13 -1 28 -6 32 -10z m231 -8 c17 -27 0 -49 -40 -49 -40 0 -68 17 -68
40 0 23 10 26 28 8 10 -9 16 -8 29 5 23 22 35 21 51 -4z m633 -110 c2 -50 -3
-93 -16 -132 -15 -50 -23 -60 -53 -73 -66 -27 -71 -9 -11 52 52 53 76 133 58
197 -7 23 -16 47 -21 53 -4 6 -2 16 5 23 19 19 36 -34 38 -120z m282 66 c-2
-64 -26 -85 -93 -85 -40 0 -50 4 -65 26 -22 34 -13 40 26 21 52 -25 99 4 99
60 0 28 4 34 18 31 14 -3 17 -13 15 -53z m-813 -12 c0 -29 20 -73 34 -74 6 0
23 -2 38 -3 38 -2 47 -15 57 -75 9 -60 6 -110 -10 -126 -12 -12 -118 95 -120
123 -1 9 -3 33 -3 52 -1 19 -5 62 -10 95 -5 43 -4 56 3 45 6 -8 11 -25 11 -37z
m-790 7 c0 -5 -2 -10 -4 -10 -3 0 -8 5 -11 10 -3 6 -1 10 4 10 6 0 11 -4 11
-10z m2617 -103 c-5 -12 -19 17 -31 63 -4 16 1 12 14 -13 12 -21 19 -44 17
-50z m-2017 23 c0 -27 -3 -30 -30 -30 -22 0 -30 5 -30 18 0 23 19 42 42 42 13
0 18 -8 18 -30z m4063 -12 c30 -85 54 -238 38 -238 -18 0 -31 28 -31 65 0 23
-5 68 -11 101 -7 32 -12 66 -12 74 0 8 -4 21 -10 28 -6 8 -6 12 0 12 6 0 17
-19 26 -42z m-3213 -20 c0 -7 -7 -22 -15 -32 -11 -15 -18 -17 -26 -9 -8 8 -6
17 8 31 21 24 33 27 33 10z m-1100 -34 c-18 -21 -24 -10 -8 15 7 12 14 17 16
11 2 -6 -2 -17 -8 -26z m1285 14 c19 -78 -42 -151 -107 -129 -38 13 -68 39
-68 58 0 19 17 16 40 -7 27 -27 56 -25 85 5 17 16 25 35 25 60 0 39 17 47 25
13z m3858 8 c6 -15 -1 -26 -15 -26 -4 0 -8 9 -8 20 0 23 15 27 23 6z m-4783
-26 c0 -27 -34 -44 -50 -25 -9 11 -6 17 17 29 35 19 33 19 33 -4z m-840 -40
c0 -5 -4 -10 -10 -10 -5 0 -10 5 -10 10 0 6 5 10 10 10 6 0 10 -4 10 -10z
m743 -35 c33 -7 35 -18 3 -33 -18 -8 -28 -7 -45 4 -25 18 -28 43 -3 39 9 -2
29 -6 45 -10z m2440 -26 c-10 -12 -34 -37 -53 -53 -19 -17 -46 -43 -61 -58
-15 -16 -31 -28 -36 -28 -6 0 -18 -9 -28 -20 -22 -24 -193 -110 -219 -110 -11
0 -27 -7 -35 -14 -10 -10 -22 -12 -30 -7 -18 12 -6 41 17 41 10 0 35 9 57 20
22 11 44 20 49 20 20 0 148 83 247 160 102 79 127 93 92 49z m-2298 -36 c-8
-45 -30 -63 -64 -54 -24 7 -70 71 -51 71 6 0 10 -3 10 -8 0 -4 9 -13 21 -20
17 -11 25 -11 45 3 13 8 24 22 24 30 0 8 5 15 11 15 8 0 9 -12 4 -37z m735 -2
c0 -13 -66 -61 -84 -61 -48 0 -10 54 44 63 14 2 28 5 33 6 4 0 7 -3 7 -8z
m180 -44 c0 -60 -17 -92 -56 -101 -37 -10 -89 10 -104 39 -18 34 -5 43 23 17
29 -28 55 -28 84 0 16 15 23 33 23 60 0 27 4 38 15 38 11 0 15 -13 15 -53z
m-573 32 c35 -6 64 -16 65 -23 7 -52 2 -73 -21 -95 -14 -14 -25 -27 -25 -30 1
-3 4 -18 8 -34 6 -27 6 -27 -13 -8 -10 10 -25 23 -32 27 -23 15 -69 110 -69
143 0 35 0 35 87 20z m100 -31 c-3 -8 -6 -5 -6 6 -1 11 2 17 5 13 3 -3 4 -12
1 -19z m-542 -58 c10 -11 25 -20 34 -20 9 0 29 -7 44 -15 15 -8 34 -12 42 -8
8 3 15 1 15 -4 0 -20 -27 -43 -57 -49 -32 -6 -33 -5 -33 25 0 30 -1 31 -45 31
-49 0 -67 18 -45 45 16 20 23 19 45 -5z m213 2 c2 -7 -5 -12 -17 -12 -14 0
-19 5 -14 15 6 17 25 15 31 -3z m370 -45 c9 -19 11 -48 6 -102 -6 -63 -10 -75
-25 -75 -10 0 -22 -8 -28 -17 -12 -23 -18 -17 -25 30 -6 35 -5 37 23 37 26 0
29 4 35 46 4 30 1 57 -9 80 -18 43 2 43 23 1z m-690 4 c3 -8 -1 -12 -9 -9 -7
2 -15 10 -17 17 -3 8 1 12 9 9 7 -2 15 -10 17 -17z m952 -25 c0 -3 -14 -14
-31 -26 -36 -27 -54 -17 -19 10 23 18 50 26 50 16z m202 -18 c3 -52 -5 -124
-16 -130 -6 -4 -33 -8 -59 -8 -39 0 -52 5 -72 26 -23 25 -35 74 -17 74 4 0 15
-14 24 -30 34 -60 108 -28 108 46 0 17 3 34 7 37 13 13 23 7 25 -15z m2796
-18 c2 -13 13 -36 24 -50 17 -22 18 -25 4 -28 -9 -2 -16 -10 -16 -18 0 -8 -7
-14 -15 -14 -16 0 -82 64 -103 100 -12 20 -12 22 2 17 8 -3 18 -2 22 4 3 6 12
8 20 5 7 -3 16 -1 20 5 11 18 39 4 42 -21z m-3893 -79 c-5 -13 -8 -13 -21 1
-13 13 -14 20 -3 39 l12 23 9 -24 c5 -13 6 -30 3 -39z m2601 21 c-15 -15 -15
-15 -4 10 7 15 15 23 17 17 2 -6 -4 -18 -13 -27z m-2238 3 c4 -31 -33 -49 -69
-35 -41 17 -39 47 4 53 51 6 62 3 65 -18z m-258 -4 c7 -13 7 -22 0 -26 -18
-11 -50 6 -50 26 0 25 36 25 50 0z m741 -54 c-11 -14 -61 -30 -61 -20 0 3 10
18 21 35 19 27 23 28 37 14 12 -12 13 -18 3 -29z m-639 7 c8 -7 -3 -44 -12
-44 -12 0 -40 29 -40 41 0 10 43 13 52 3z m708 -37 c0 -7 -9 -18 -20 -25 -16
-10 -20 -10 -20 1 0 14 20 37 32 37 4 0 8 -6 8 -13z m218 -45 c3 -36 -1 -47
-27 -72 -41 -41 -82 -41 -122 2 -30 33 -39 68 -16 68 6 -1 21 -15 32 -33 29
-46 63 -44 92 8 13 22 21 48 19 58 -3 11 0 17 7 14 7 -2 13 -22 15 -45z
m-2212 11 c-10 -10 -19 5 -10 18 6 11 8 11 12 0 2 -7 1 -15 -2 -18z m5037 0
c37 -19 165 -27 214 -14 24 7 33 6 37 -5 7 -17 87 -19 104 -2 15 15 45 -9 37
-30 -3 -8 3 -16 14 -19 29 -7 45 -56 38 -117 -3 -35 0 -69 9 -97 16 -47 15
-100 -2 -106 -6 -2 -22 8 -35 21 -13 14 -32 26 -41 26 -9 0 -32 15 -50 33 -47
46 -75 60 -82 42 -3 -8 -14 -15 -25 -15 -10 0 -21 -7 -25 -15 -3 -8 -12 -15
-21 -15 -18 0 -19 1 0 36 13 25 13 31 -1 52 -12 18 -13 26 -4 32 8 5 4 16 -12
36 -13 16 -31 40 -40 55 -9 14 -33 31 -54 38 -46 15 -126 81 -99 81 4 0 20 -8
38 -17z m-3606 -19 c32 -17 50 -34 55 -52 4 -14 5 -28 3 -30 -5 -6 -83 25
-112 44 -26 16 -32 64 -9 64 8 0 37 -11 63 -26z m-219 -6 c16 -16 15 -38 0
-38 -23 0 -39 16 -32 33 7 20 16 21 32 5z m-68 -22 c0 -11 -19 -15 -25 -6 -3
5 1 10 9 10 9 0 16 -2 16 -4z m806 -44 c-8 -16 -23 -32 -31 -36 -25 -9 -74 -7
-96 4 -33 18 -21 30 24 24 38 -5 45 -3 70 26 36 39 57 28 33 -18z m-2150 23
c-3 -8 -1 -15 5 -15 5 0 24 -14 42 -30 52 -49 128 -105 187 -138 135 -73 162
-84 232 -93 77 -11 170 -38 132 -39 -12 0 -27 -7 -35 -16 -11 -14 -13 -14 -21
0 -5 10 -23 16 -43 16 -58 0 -157 30 -249 77 -49 25 -95 50 -101 57 -6 6 -29
25 -50 41 -50 39 -86 76 -108 112 -7 11 1 43 10 43 3 0 3 -7 -1 -15z m1544
-28 c0 -19 -20 -36 -36 -30 -8 3 -14 14 -14 24 0 14 7 19 25 19 14 0 25 -6 25
-13z m-1145 -16 c-3 -6 -11 -8 -17 -5 -6 4 -5 9 3 15 16 10 23 4 14 -10z
m1465 5 c0 -8 -14 -26 -32 -41 -26 -22 -39 -26 -67 -21 -33 5 -70 30 -60 41 3
2 19 -1 36 -7 28 -11 35 -9 65 15 37 29 58 34 58 13z m370 -25 c0 -11 -31 -24
-39 -16 -3 3 1 10 9 15 19 12 30 12 30 1z m210 -48 c0 -63 -28 -93 -84 -93
-52 1 -75 19 -83 64 -7 46 9 47 36 1 35 -60 94 -35 107 45 9 52 24 41 24 -17z
m3305 4 c3 -23 9 -50 11 -59 3 -10 1 -18 -4 -18 -5 0 -12 19 -16 43 -3 23 -9
53 -12 66 -5 16 -4 22 4 18 5 -4 13 -26 17 -50z m-3771 27 c23 -9 1 -34 -30
-34 -28 0 -33 26 -6 33 9 3 18 5 19 6 1 0 9 -2 17 -5z m-513 -30 c11 -14 10
-15 -11 -12 -13 1 -25 9 -28 16 -5 17 23 15 39 -4z m231 -9 c9 -4 24 -17 32
-29 14 -22 13 -24 -10 -36 -20 -11 -29 -11 -60 6 -46 25 -54 35 -48 61 5 17
10 19 37 13 18 -4 40 -11 49 -15z m3683 14 c11 -17 -1 -21 -15 -4 -8 9 -8 15
-2 15 6 0 14 -5 17 -11z m-3989 -50 c3 -6 1 -16 -5 -22 -9 -9 -14 -8 -21 3 -5
8 -10 18 -10 23 0 11 28 8 36 -4z m814 -3 c0 -7 -9 -25 -20 -39 -27 -34 -78
-44 -118 -23 -37 19 -46 32 -38 52 5 13 11 11 37 -10 39 -33 49 -33 84 4 30
32 55 39 55 16z m-1033 -18 c6 -7 16 -31 23 -53 7 -22 28 -78 48 -125 19 -47
69 -175 112 -285 43 -110 112 -273 154 -361 42 -89 76 -167 76 -174 0 -7 25
-65 55 -129 30 -65 55 -124 55 -132 0 -35 -21 -39 -194 -39 -94 0 -268 -8
-386 -17 -324 -25 -330 -25 -308 39 14 40 2 93 -31 131 -39 45 -42 61 -46 247
-4 168 0 190 35 190 9 0 46 26 81 58 35 32 86 73 113 91 58 40 93 108 108 209
26 180 51 318 61 339 11 25 29 30 44 11z m407 -4 c23 -9 20 -34 -4 -34 -13 0
-20 7 -20 20 0 22 1 23 24 14z m316 -26 c0 -34 -38 -68 -76 -68 -32 0 -94 41
-94 61 0 21 32 21 51 0 26 -27 40 -27 69 4 29 31 50 32 50 3z m2189 -11 c-2
-2 -19 -15 -37 -30 -37 -30 -62 -36 -41 -10 17 20 71 54 78 48 2 -3 2 -6 0 -8z
m1705 -79 c4 -20 16 -58 27 -83 14 -31 17 -50 11 -62 -8 -13 -11 -10 -18 18
-10 42 -9 41 -17 59 -11 30 -25 86 -31 125 l-6 40 13 -30 c8 -16 17 -47 21
-67z m-3303 70 c0 -2 2 -22 5 -44 4 -34 0 -47 -19 -70 -21 -24 -35 -29 -88
-35 -35 -3 -73 -9 -84 -13 -18 -6 -18 -5 2 9 19 15 21 23 16 66 -7 59 6 64 36
14 34 -58 101 -38 101 30 0 17 3 35 7 38 6 7 22 10 24 5z m-449 -25 c9 -35 -2
-43 -62 -43 -52 0 -59 2 -57 19 0 11 4 18 8 15 4 -2 22 3 40 11 45 19 66 19
71 -2z m-602 -24 c0 -24 -23 -21 -28 4 -2 10 3 17 12 17 10 0 16 -9 16 -21z
m85 12 c10 -17 -12 -21 -25 -6 -10 12 -10 15 3 15 9 0 18 -4 22 -9z m1915 1
c0 -20 -39 -52 -62 -52 -24 0 -84 37 -75 47 3 2 21 -4 41 -13 35 -17 37 -17
64 4 32 24 32 25 32 14z m-1700 -27 c32 -17 40 -49 15 -59 -20 -7 -81 46 -71
62 10 16 21 15 56 -3z m516 -49 c-7 -28 -58 -66 -89 -66 -28 0 -77 29 -77 45
0 18 2 18 34 4 38 -18 70 -4 90 37 16 34 19 36 33 21 10 -10 13 -24 9 -41z
m1644 -15 c0 -11 -31 -24 -39 -16 -3 3 1 10 9 15 19 12 30 12 30 1z m-1970
-23 c0 -43 -85 -65 -122 -31 -27 24 -22 38 8 18 25 -16 27 -16 62 9 35 25 52
26 52 4z m-290 3 c0 -14 -18 -23 -30 -16 -6 4 -8 11 -5 16 8 12 35 12 35 0z
m910 -51 c0 -28 -6 -63 -14 -78 -13 -24 -19 -27 -61 -26 -50 2 -95 32 -95 65
0 31 18 30 40 -1 39 -55 100 -25 100 50 0 29 4 40 15 40 11 0 15 -12 15 -50z
m-2630 -35 c4 3 13 -1 19 -9 9 -11 7 -15 -8 -19 -26 -7 -41 12 -47 60 l-5 38
17 -37 c9 -21 20 -36 24 -33z m2158 38 c3 -22 0 -23 -58 -23 -69 0 -77 14 -20
35 50 18 74 14 78 -12z m-572 -40 c-9 -9 -46 28 -40 39 3 5 15 0 26 -12 11
-12 17 -24 14 -27z m295 5 c11 -17 -2 -48 -20 -48 -14 0 -61 49 -61 63 0 7 76
-6 81 -15z m3226 -10 c-3 -8 -6 -5 -6 6 -1 11 2 17 5 13 3 -3 4 -12 1 -19z
m-1330 6 c-3 -3 -12 -4 -19 -1 -8 3 -5 6 6 6 11 1 17 -2 13 -5z m-1417 -42 c0
-32 -24 -53 -68 -59 -45 -6 -92 15 -92 42 0 19 14 19 30 0 19 -23 63 -18 90
10 28 30 40 32 40 7z m-302 -29 c3 -17 -6 -27 -36 -42 -55 -28 -122 -6 -122
41 0 22 16 23 36 3 21 -20 37 -19 59 5 24 26 59 22 63 -7z m422 -1 c0 -6 -24
-21 -83 -50 -5 -2 -7 6 -5 19 2 15 12 26 28 30 35 10 60 10 60 1z m196 -38 c4
-14 1 -43 -5 -64 -14 -46 -51 -64 -105 -49 -30 8 -38 6 -63 -16 -15 -15 -35
-33 -44 -41 -21 -19 -43 -18 -35 2 3 9 6 21 6 28 0 8 18 25 40 40 22 15 40 34
40 44 0 33 13 33 40 1 22 -27 31 -31 53 -25 31 7 50 38 49 78 -1 35 15 37 24
2z m-478 -11 c14 -23 14 -23 -45 -23 -78 0 -100 20 -41 36 56 15 68 13 86 -13z
m-291 -25 c18 -15 16 -28 -5 -28 -10 0 -28 13 -40 30 l-22 30 27 -11 c15 -5
33 -15 40 -21z m482 -95 c-34 -40 -110 -36 -137 8 -17 27 -7 37 16 16 28 -25
79 -22 93 6 7 12 17 25 23 29 16 11 20 -40 5 -59z m-299 -3 c-24 -46 -106 -52
-127 -10 -15 29 -1 39 23 16 17 -18 44 -21 44 -6 0 5 12 16 27 24 31 16 48 4
33 -24z m642 -46 c0 -51 -16 -69 -70 -80 -47 -9 -102 29 -102 71 l1 30 19 -25
c11 -14 25 -31 30 -37 6 -7 22 -13 36 -13 31 0 64 51 64 100 1 29 2 32 11 17
6 -10 11 -39 11 -63z m-782 -26 c0 -19 -28 -6 -38 17 -18 38 -15 41 13 15 14
-13 25 -27 25 -32z m318 12 c17 -21 32 -42 32 -46 0 -17 35 -44 56 -44 23 0
64 42 64 66 0 19 29 18 37 -2 3 -9 -1 -31 -10 -49 -20 -43 -74 -63 -118 -45
-32 14 -69 58 -69 84 0 19 -7 22 -72 31 -56 7 -61 17 -15 32 52 17 60 15 95
-27z m3225 5 c29 -26 36 -55 13 -55 -12 0 -56 60 -56 76 0 10 17 2 43 -21z
m-3643 -36 c0 -10 -4 -19 -9 -19 -12 0 -23 29 -15 41 8 14 24 0 24 -22z m1970
-46 c22 6 23 5 14 -17 -3 -9 -13 -16 -21 -16 -9 0 -11 5 -7 13 6 9 4 9 -8 -1
-14 -11 -19 -9 -32 10 -23 33 -20 41 9 22 14 -9 34 -14 45 -11z m-1819 -20
c-9 -16 -10 -14 -11 12 0 21 3 26 11 18 8 -8 8 -16 0 -30z m146 20 c11 -29
-35 -56 -85 -50 -50 5 -57 10 -48 32 5 13 9 13 26 3 17 -11 23 -9 42 10 26 26
56 29 65 5z m1723 13 c0 -3 -4 -8 -10 -11 -5 -3 -10 -1 -10 4 0 6 5 11 10 11
6 0 10 -2 10 -4z m511 -67 l24 -1 -25 -8 c-14 -4 -54 -15 -90 -25 -153 -41
-251 -78 -294 -111 -53 -40 -56 -41 -56 -11 0 20 20 63 20 43 0 -4 15 3 33 16
80 62 254 122 282 98 9 -8 15 -8 20 0 3 6 11 7 17 4 7 -5 9 1 5 16 l-6 22 23
-21 c12 -11 33 -21 47 -22z m-2067 -37 c17 -19 35 -44 41 -56 7 -13 22 -22 42
-24 38 -4 63 26 63 75 0 30 15 52 27 39 3 -3 8 -25 10 -49 7 -56 -24 -95 -80
-104 -49 -8 -83 11 -107 57 -25 48 -54 73 -78 66 -11 -4 -32 -1 -47 6 l-28 12
29 13 c44 19 92 5 128 -35z m-420 2 c9 -22 8 -24 -9 -24 -8 0 -15 9 -15 20 0
24 15 27 24 4z m-1842 -16 c-7 -7 -12 -8 -12 -2 0 6 3 14 7 17 3 4 9 5 12 2 2
-3 -1 -11 -7 -17z m2008 -47 c0 -6 -4 -13 -10 -16 -5 -3 -10 1 -10 9 0 9 5 16
10 16 6 0 10 -4 10 -9z m138 -19 c3 -17 -2 -25 -17 -29 -11 -3 -19 -9 -16 -13
7 -11 -77 0 -92 12 -17 14 -5 30 16 23 11 -3 28 3 42 15 31 26 63 22 67 -8z
m-198 -8 c0 -8 -4 -14 -9 -14 -11 0 -22 26 -14 34 9 9 23 -3 23 -20z m303 -24
c23 -1 57 -38 51 -54 -8 -20 -28 -20 -62 -2 -15 7 -43 20 -62 29 l-35 15 35
10 c19 6 41 8 48 6 8 -2 19 -4 25 -4z m-358 -48 c0 -18 -20 -15 -23 4 -3 10 1
15 10 12 7 -3 13 -10 13 -16z m1962 -24 c-3 -8 -6 -5 -6 6 -1 11 2 17 5 13 3
-3 4 -12 1 -19z m-3447 -27 c-22 -42 -90 -38 -99 5 -3 18 -3 18 16 1 16 -14
26 -16 47 -7 15 5 29 17 33 27 4 10 8 12 10 6 3 -7 -1 -21 -7 -32z m-281 3 c2
-2 -14 -4 -37 -4 -23 0 -42 4 -42 9 0 9 69 4 79 -5z m2071 -23 c0 -26 -23 -42
-67 -48 -25 -3 -45 1 -58 11 -19 15 -19 15 11 16 22 0 36 8 53 30 18 25 25 29
41 20 11 -6 20 -19 20 -29z m-199 -4 c-1 -12 -15 -9 -19 4 -3 6 1 10 8 8 6 -3
11 -8 11 -12z m-1927 -42 c13 -12 36 -25 49 -29 14 -3 32 -12 39 -20 8 -7 25
-17 38 -21 13 -4 33 -18 45 -31 12 -13 39 -31 59 -39 20 -8 36 -20 36 -25 0
-12 -27 -2 -61 21 -23 16 -148 54 -289 88 -94 22 -140 36 -140 41 0 10 69 27
78 18 5 -5 28 -6 52 -2 37 6 40 8 22 15 -32 12 -27 16 13 11 19 -2 45 -14 59
-27z m2243 16 c3 -11 14 -21 25 -24 15 -4 19 -12 16 -34 -2 -23 -7 -28 -28
-25 -13 1 -33 11 -45 22 -11 10 -32 22 -47 25 -38 10 -35 28 5 42 50 16 68 15
74 -6z m-377 -41 c0 -5 -2 -10 -4 -10 -3 0 -8 5 -11 10 -3 6 -1 10 4 10 6 0
11 -4 11 -10z m2530 -6 c0 -2 -17 -4 -37 -4 -24 0 -33 3 -25 9 12 7 62 4 62
-5z m-106 -3 c4 -5 -18 -17 -46 -26 -29 -10 -70 -28 -90 -41 -48 -31 -49 -16
-3 25 21 18 47 31 63 31 15 0 34 5 42 10 19 12 27 12 34 1z m-2320 -47 c4 -15
5 -29 2 -32 -10 -9 -36 20 -36 39 0 29 27 23 34 -7z m195 -13 c21 -14 5 -40
-35 -57 -40 -17 -75 -15 -82 4 -2 8 7 12 26 12 21 0 35 8 46 25 18 27 24 29
45 16z m697 -28 c26 -21 34 -36 34 -59 0 -24 9 -40 35 -63 41 -35 44 -45 13
-36 -28 9 -115 91 -134 127 -32 61 -6 76 52 31z m672 5 c20 -20 15 -102 -8
-123 -20 -18 -33 -64 -34 -120 -1 -30 -1 -30 -61 -30 -93 1 -278 27 -294 41
-7 7 -11 18 -9 26 3 7 58 40 122 72 64 32 116 62 116 66 0 3 23 17 50 30 28
13 56 30 62 37 13 16 40 17 56 1z m-1213 -46 c3 -8 2 -24 -1 -37 -5 -21 -9
-23 -32 -14 -50 18 -92 44 -89 54 2 5 19 17 37 26 32 15 36 15 57 0 12 -9 25
-22 28 -29z m-298 -78 c10 -26 -10 -34 -50 -20 -36 12 -37 13 -15 24 33 16 58
14 65 -4z m213 -20 c6 -7 -39 -42 -64 -50 -31 -10 -38 10 -15 40 17 22 27 26
48 21 14 -4 28 -9 31 -11z m-2350 -24 c0 -5 8 -10 18 -10 9 0 28 -9 42 -20 14
-11 30 -20 36 -20 6 0 24 -10 40 -22 16 -13 31 -22 34 -20 2 2 6 -1 8 -7 5
-16 -5 -14 -78 13 -106 40 -229 76 -263 77 l-32 1 30 8 c45 12 165 12 165 0z
m2470 -50 c0 -29 -39 -26 -69 5 -17 18 -19 25 -8 25 8 0 20 7 27 15 12 14 15
13 31 -4 11 -11 19 -29 19 -41z m650 30 c0 -5 -4 -10 -9 -10 -6 0 -13 5 -16
10 -3 6 1 10 9 10 9 0 16 -4 16 -10z m-213 -22 c-3 -8 -6 -5 -6 6 -1 11 2 17
5 13 3 -3 4 -12 1 -19z m1788 -28 c-22 -10 -57 -26 -77 -34 -48 -21 -75 -57
-84 -112 -3 -24 -10 -44 -15 -44 -5 0 -9 -7 -9 -15 0 -13 -3 -13 -18 2 -30 30
-54 74 -48 88 3 8 -4 17 -15 20 -21 7 -20 15 3 19 7 2 20 5 28 8 8 3 43 14 78
23 34 10 67 24 73 32 6 7 15 11 19 8 4 -3 23 2 41 10 50 21 71 17 24 -5z
m-1755 -21 c0 -6 -4 -7 -10 -4 -5 3 -10 11 -10 16 0 6 5 7 10 4 6 -3 10 -11
10 -16z m-689 -23 c5 3 9 -4 9 -16 0 -30 -24 -20 -27 11 -1 13 0 18 3 11 3 -6
10 -10 15 -6z m122 -8 c9 -31 -8 -55 -43 -60 -35 -5 -38 2 -10 27 11 10 22 26
25 36 8 25 21 24 28 -3z m-88 -58 c3 -5 1 -10 -4 -10 -6 0 -11 5 -11 10 0 6 2
10 4 10 3 0 8 -4 11 -10z m3195 -49 c0 -8 -79 -3 -89 5 -2 2 17 4 42 4 26 0
47 -4 47 -9z m-5912 -32 c12 -18 11 -20 -5 -17 -10 2 -19 11 -21 21 -5 23 10
21 26 -4z m5332 1 c0 -5 -4 -10 -10 -10 -5 0 -10 5 -10 10 0 6 5 10 10 10 6 0
10 -4 10 -10z m-5120 -49 c36 -11 89 -24 118 -27 42 -6 52 -10 52 -26 0 -29
-28 -33 -56 -7 -20 19 -27 21 -34 10 -11 -19 -60 -8 -110 25 -23 15 -52 29
-65 30 -13 1 -32 7 -42 13 -32 18 66 5 137 -18z m5063 9 c-4 -4 -66 -32 -138
-63 -118 -52 -176 -71 -289 -98 -39 -10 -64 -4 -30 6 10 4 51 19 89 36 77 32
178 69 270 101 33 11 64 24 69 29 5 4 15 5 23 2 8 -3 11 -9 6 -13z m931 -20
c40 1 57 -2 54 -10 -2 -8 -35 -13 -90 -14 -78 -2 -87 0 -92 17 -4 17 -1 18 32
13 20 -4 63 -6 96 -6z m-5744 -40 c0 -5 -5 -10 -11 -10 -5 0 -7 5 -4 10 3 6 8
10 11 10 2 0 4 -4 4 -10z m3136 -7 c3 -10 13 -31 21 -48 l16 -30 -27 24 c-30
28 -33 26 -71 -46 -15 -29 -31 -53 -37 -53 -5 0 -1 12 10 28 11 15 25 45 32
67 17 53 29 75 41 75 5 0 12 -8 15 -17z m2654 -18 c0 -8 8 -30 17 -50 l17 -35
-35 -35 c-56 -58 -71 -59 -34 -5 29 43 33 55 25 76 -13 33 -13 64 0 64 6 0 10
-7 10 -15z m-5904 -54 c1 -14 -5 -21 -18 -21 -11 0 -17 4 -13 9 3 5 1 12 -5
16 -5 3 -10 13 -10 20 0 24 45 1 46 -24z m-393 -75 c18 -8 48 -19 67 -25 42
-13 257 -41 320 -41 35 -1 41 -3 28 -11 -33 -19 -317 17 -388 49 -19 9 -38 15
-41 14 -15 -4 -59 49 -59 70 0 21 2 20 21 -9 12 -18 35 -39 52 -47z m4830 37
c-7 -2 -19 -2 -25 0 -7 3 -2 5 12 5 14 0 19 -2 13 -5z m-993 -13 c-19 -13 -30
-13 -30 0 0 6 10 10 23 10 18 0 19 -2 7 -10z m1865 -9 c3 -5 0 -13 -5 -16 -16
-10 -62 4 -55 15 8 13 52 13 60 1z m-235 -28 c-1 -10 -50 -46 -50 -37 0 11 32
44 42 44 4 0 8 -3 8 -7z m-70 -83 c-6 -12 -14 -19 -17 -17 -2 3 1 15 7 27 6
12 14 19 17 17 2 -3 -1 -15 -7 -27z m315 -47 c13 -54 42 -78 103 -83 37 -3 57
-10 60 -20 3 -8 1 -12 -3 -8 -4 4 -23 1 -42 -7 -20 -8 -47 -15 -62 -15 -17 0
-36 -11 -54 -32 l-29 -33 21 36 c26 45 26 60 1 127 -11 29 -20 57 -20 63 0 19
18 -1 25 -28z m-1735 1 c9 -3 31 -30 50 -60 34 -54 36 -55 75 -51 22 3 32 3
23 0 -10 -2 -18 -11 -18 -18 0 -18 -37 -38 -56 -31 -8 3 -11 12 -8 21 7 18
-34 84 -79 126 -18 17 -25 28 -17 25 8 -3 22 -8 30 -12z m2020 -76 c0 -7 3
-24 6 -38 5 -24 5 -24 -10 -6 -18 22 -21 56 -6 56 6 0 10 -6 10 -12z m-40 -8
c0 -5 -10 -10 -22 -9 -22 0 -22 1 -3 9 11 5 21 9 23 9 1 1 2 -3 2 -9z m-669
-87 c-10 -21 -22 -49 -26 -63 -4 -14 -20 -43 -35 -65 -14 -22 -34 -62 -44 -90
-10 -27 -23 -54 -28 -60 -10 -12 0 45 19 99 17 51 17 74 -3 78 -11 2 1 16 38
43 30 22 62 52 71 68 24 40 30 33 8 -10z m-414 -35 c-3 -7 -5 -2 -5 12 0 14 2
19 5 13 2 -7 2 -19 0 -25z m-584 -40 l-6 -51 66 7 c37 3 67 4 67 2 0 -3 -19
-10 -42 -16 -75 -20 -87 -33 -128 -135 -5 -11 -11 -29 -14 -39 -4 -10 -8 -17
-11 -14 -2 2 3 28 11 58 15 51 26 105 39 189 5 33 12 51 20 51 2 0 1 -23 -2
-52z m1371 5 c-20 -30 -36 -44 -43 -38 -4 5 52 73 57 69 2 -1 -5 -15 -14 -31z
m-1077 -8 c-7 -16 -37 -21 -37 -5 0 10 32 31 39 25 2 -2 1 -11 -2 -20z m362
-22 c3 -2 -3 -9 -12 -16 -8 -6 -30 -46 -47 -87 -18 -41 -38 -88 -45 -105 l-14
-30 0 28 c-1 15 13 60 29 99 17 38 30 88 30 109 l0 39 28 -17 c15 -9 29 -18
31 -20z m194 0 c-7 -2 -19 -2 -25 0 -7 3 -2 5 12 5 14 0 19 -2 13 -5z m-574
-248 c0 -14 -2 -16 -6 -5 -3 8 -10 18 -16 21 -5 4 -6 12 -2 19 10 16 25 -6 24
-35z m574 -7 c-3 -13 -9 -27 -13 -33 -5 -5 -13 -30 -20 -54 -6 -23 -13 -41
-16 -39 -5 5 24 105 37 131 13 24 18 21 12 -5z"/>
<path d="M5330 11079 c0 -5 5 -7 10 -4 6 3 10 8 10 11 0 2 -4 4 -10 4 -5 0
-10 -5 -10 -11z"/>
<path d="M5380 11005 c-8 -9 -8 -15 -2 -15 12 0 26 19 19 26 -2 2 -10 -2 -17
-11z"/>
<path d="M5705 10529 c-11 -17 1 -21 15 -4 8 9 8 15 2 15 -6 0 -14 -5 -17 -11z"/>
<path d="M3440 10580 c0 -5 5 -10 10 -10 6 0 10 5 10 10 0 6 -4 10 -10 10 -5
0 -10 -4 -10 -10z"/>
<path d="M4680 9120 c0 -5 5 -10 11 -10 5 0 7 5 4 10 -3 6 -8 10 -11 10 -2 0
-4 -4 -4 -10z"/>
<path d="M5370 9040 c0 -5 -7 -10 -15 -10 -8 0 -15 -3 -15 -6 0 -3 7 -12 15
-20 13 -14 15 -13 15 5 0 12 5 21 10 21 6 0 10 5 10 10 0 6 -4 10 -10 10 -5 0
-10 -4 -10 -10z"/>
<path d="M4344 8795 c4 -14 2 -25 -3 -25 -18 0 39 -177 77 -240 19 -31 21 -31
37 -14 18 21 145 216 145 224 0 8 -81 38 -145 53 -127 31 -118 31 -111 2z
m104 -50 c24 -9 48 -13 53 -9 14 8 59 -4 59 -16 0 -6 -12 -20 -26 -33 -14 -12
-37 -47 -50 -77 -14 -29 -27 -56 -29 -58 -11 -12 -35 24 -35 52 0 46 -18 103
-35 110 -8 3 -15 15 -15 26 0 24 19 25 78 5z"/>
<path d="M4541 8514 c0 -11 3 -14 6 -6 3 7 2 16 -1 19 -3 4 -6 -2 -5 -13z"/>
<path d="M4748 7923 c7 -3 16 -2 19 1 4 3 -2 6 -13 5 -11 0 -14 -3 -6 -6z"/>
<path d="M4815 7890 c3 -5 8 -10 11 -10 2 0 4 5 4 10 0 6 -5 10 -11 10 -5 0
-7 -4 -4 -10z"/>
<path d="M4840 7849 c0 -5 5 -7 10 -4 6 3 10 8 10 11 0 2 -4 4 -10 4 -5 0 -10
-5 -10 -11z"/>
<path d="M8972 4729 c2 -7 10 -15 17 -17 8 -3 12 1 9 9 -2 7 -10 15 -17 17 -8
3 -12 -1 -9 -9z"/>
<path d="M9042 4690 c0 -14 2 -19 5 -12 2 6 2 18 0 25 -3 6 -5 1 -5 -13z"/>
<path d="M494 13267 c-3 -8 -4 -30 -1 -49 3 -29 4 -28 6 12 3 38 4 41 11 20 7
-23 8 -23 9 -3 1 26 -17 40 -25 20z"/>
<path d="M471 13158 c0 -33 3 -58 9 -58 6 0 10 -6 10 -14 0 -8 5 -16 12 -18 7
-3 8 -9 3 -18 -6 -10 -11 -9 -22 6 -12 16 -15 17 -24 4 -12 -18 -3 -223 10
-228 4 -1 6 -34 4 -72 -2 -49 0 -70 8 -70 7 0 9 -10 6 -27 -5 -28 14 -69 26
-56 4 3 7 0 8 -8 1 -8 2 -23 3 -34 0 -11 -6 -25 -14 -32 -13 -11 -13 -12 0
-13 11 0 16 -16 18 -67 2 -37 7 -74 12 -83 8 -14 1 -66 -16 -121 -3 -13 1 -15
20 -12 22 5 24 2 19 -18 -4 -13 -11 -27 -17 -31 -7 -5 -4 -24 9 -59 13 -37 15
-54 7 -57 -8 -2 -7 -14 4 -40 9 -20 16 -48 15 -61 -1 -18 3 -22 15 -17 14 5
15 4 4 -9 -7 -8 -10 -26 -8 -40 3 -13 0 -26 -5 -28 -7 -2 -7 -9 -2 -18 5 -8 8
-22 7 -31 -2 -10 2 -18 7 -18 7 0 9 -14 5 -41 -5 -30 -3 -43 7 -50 10 -6 10
-9 2 -9 -13 0 -6 -30 9 -41 4 -3 10 -27 13 -54 6 -72 27 -136 42 -131 7 3 15
1 18 -4 4 -6 -1 -10 -9 -10 -9 0 -16 -9 -16 -21 0 -11 5 -17 10 -14 6 3 10 2
10 -4 0 -5 -5 -11 -11 -13 -9 -3 -9 -10 0 -26 7 -12 9 -27 6 -32 -7 -12 11
-32 40 -45 18 -7 18 -9 3 -12 -22 -5 -24 -23 -3 -23 19 0 20 -26 0 -34 -18 -6
-9 -36 11 -36 21 0 17 -21 -6 -27 -11 -3 -20 -12 -20 -20 0 -8 -4 -11 -10 -8
-5 3 -10 1 -10 -4 0 -6 4 -11 9 -11 5 0 17 -7 26 -16 12 -12 13 -19 4 -30 -6
-7 -8 -18 -4 -24 4 -6 2 -17 -5 -25 -7 -9 -8 -15 0 -20 5 -3 10 -2 10 2 0 5
17 15 38 23 20 8 41 17 47 19 9 4 -29 -47 -59 -79 -11 -12 -13 -31 -9 -80 3
-36 6 -82 6 -102 -1 -26 3 -36 11 -32 7 4 6 2 -2 -7 -15 -16 -16 -49 0 -49 6
0 3 -9 -7 -20 -28 -31 -27 -49 3 -56 15 -4 32 -13 39 -21 10 -13 14 -10 26 18
l14 34 12 -24 c11 -20 10 -34 -3 -85 -16 -58 -15 -66 2 -151 19 -87 20 -90 46
-88 32 2 33 -5 2 -32 -23 -19 -24 -23 -15 -85 5 -36 16 -119 24 -185 9 -66 21
-153 27 -194 10 -58 10 -75 0 -79 -7 -2 -12 -8 -12 -13 0 -6 4 -7 10 -4 5 3
13 -7 16 -22 5 -17 3 -28 -4 -31 -7 -2 -12 -8 -12 -13 0 -6 5 -7 12 -3 6 4 8
3 5 -3 -6 -9 56 -411 67 -438 3 -5 5 3 5 20 1 38 20 21 28 -25 2 -18 9 -43 13
-56 10 -25 2 -66 -11 -58 -17 10 -9 -29 9 -42 9 -7 12 -14 7 -14 -6 0 -12 -12
-13 -27 -1 -15 -7 -30 -14 -34 -7 -5 1 -21 26 -50 22 -26 44 -68 56 -107 23
-73 24 -94 9 -109 -8 -8 -3 -13 19 -18 40 -8 57 -30 72 -91 12 -48 12 -54 -8
-82 -28 -39 -28 -42 5 -33 57 17 103 41 130 67 16 14 23 24 16 20 -19 -10 -31
25 -24 69 4 22 3 58 -2 80 -39 178 -68 357 -62 386 4 19 13 29 25 29 44 0 53
77 15 122 -28 33 -36 94 -11 85 9 -4 16 3 19 19 4 23 3 23 -13 9 -9 -8 -20
-12 -23 -8 -4 3 -7 -19 -7 -50 0 -43 -4 -57 -15 -57 -20 0 -30 24 -44 110 -7
41 -17 91 -21 110 -12 50 -40 208 -44 255 -3 22 -14 72 -26 110 -12 39 -24 82
-27 98 -6 32 -25 37 -22 5 5 -55 -2 -218 -8 -218 -5 0 -7 31 -6 68 1 38 -5
171 -13 297 -8 126 -12 235 -10 242 6 14 46 18 46 5 0 -15 160 -267 260 -410
17 -23 30 -49 30 -56 0 -7 8 -22 18 -33 9 -11 28 -35 42 -54 14 -18 37 -47 53
-65 43 -50 37 -64 -27 -61 -58 2 -96 -19 -96 -54 0 -10 -4 -21 -10 -24 -5 -3
-10 -16 -10 -28 -2 -68 2 -102 13 -109 9 -6 9 -10 -2 -17 -11 -7 -11 -10 1
-17 8 -5 22 -30 32 -56 20 -55 28 -62 80 -77 l39 -10 -32 27 c-39 34 -71 137
-71 233 0 82 10 93 85 90 44 -1 56 2 64 17 14 27 -41 138 -112 227 -31 39 -73
102 -93 140 -20 39 -48 86 -63 105 -14 19 -34 51 -44 70 -11 19 -31 51 -47 70
-15 20 -37 54 -48 76 -17 34 -25 41 -44 37 -18 -3 -27 3 -41 27 -23 39 -51
142 -66 245 -7 44 -17 98 -22 120 -5 22 -14 72 -19 110 -6 39 -17 98 -25 133
-8 35 -15 74 -15 88 0 15 -6 24 -16 24 -12 0 -15 6 -9 23 10 32 9 41 -3 99
-27 130 -76 390 -88 468 -11 75 -43 249 -59 320 -3 14 -10 52 -15 85 -5 33
-19 112 -30 175 -12 63 -32 178 -45 255 -35 205 -46 258 -58 280 -6 11 -11 40
-12 65 -1 62 -36 252 -48 268 -6 8 -13 9 -16 3 -8 -13 -37 10 -44 34 -2 11 -5
-6 -6 -37z m269 -2008 c0 -5 -2 -10 -4 -10 -3 0 -8 5 -11 10 -3 6 -1 10 4 10
6 0 11 -4 11 -10z m110 -426 c0 -8 -12 -20 -26 -26 -20 -10 -27 -9 -34 2 -11
18 -2 33 16 26 8 -3 14 1 14 9 0 9 6 12 15 9 8 -4 15 -13 15 -20z m232 -1016
c7 -20 -6 -73 -17 -70 -9 2 -10 10 -6 65 1 20 17 23 23 5z m196 -490 c-3 -25
-17 -32 -37 -19 -19 12 -6 41 19 41 16 0 21 -5 18 -22z m-83 -15 c-13 -53 -34
-93 -49 -93 -22 0 -20 15 11 71 29 53 49 65 38 22z"/>
<path d="M1047 12880 c6 -45 28 -90 44 -90 4 0 -2 24 -15 53 -13 28 -26 59
-29 67 -3 8 -3 -5 0 -30z"/>
<path d="M383 12670 c0 -25 2 -35 4 -22 2 12 2 32 0 45 -2 12 -4 2 -4 -23z"/>
<path d="M502 12570 c0 -14 2 -19 5 -12 2 6 2 18 0 25 -3 6 -5 1 -5 -13z"/>
<path d="M1151 12559 c-12 -19 -21 -50 -21 -69 0 -37 24 -174 65 -378 32 -157
31 -174 -5 -229 -31 -45 -37 -63 -21 -63 5 0 16 -3 25 -6 10 -4 16 -1 16 9 0
9 11 33 25 53 14 20 25 45 25 55 0 18 -29 169 -85 438 -24 117 -25 127 -10
169 19 56 13 65 -14 21z"/>
<path d="M260 12355 c0 -2 15 -12 33 -20 l32 -16 -25 20 c-24 20 -40 26 -40
16z"/>
<path d="M335 12320 c4 -6 11 -8 16 -5 5 4 9 2 9 -3 0 -12 50 -26 59 -17 3 4
-3 13 -13 21 -23 16 -81 19 -71 4z"/>
<path d="M440 12245 c0 -5 5 -17 10 -25 5 -8 10 -10 10 -5 0 6 -5 17 -10 25
-5 8 -10 11 -10 5z"/>
<path d="M461 12174 c0 -11 3 -14 6 -6 3 7 2 16 -1 19 -3 4 -6 -2 -5 -13z"/>
<path d="M1260 11777 c0 -23 32 -202 130 -722 28 -148 56 -295 61 -325 6 -30
23 -120 39 -200 16 -80 34 -174 40 -210 6 -36 22 -126 36 -200 14 -74 31 -171
39 -215 39 -215 76 -403 86 -427 6 -15 17 -32 25 -39 11 -9 11 -5 -1 18 -24
48 -54 217 -101 568 -22 165 -59 379 -69 396 -2 3 -22 111 -45 240 -48 273
-83 466 -110 599 -10 52 -35 181 -55 285 -20 105 -41 202 -47 218 -11 28 -28
37 -28 14z"/>
<path d="M3801 11404 c0 -11 3 -14 6 -6 3 7 2 16 -1 19 -3 4 -6 -2 -5 -13z"/>
<path d="M622 11290 c0 -14 2 -19 5 -12 2 6 2 18 0 25 -3 6 -5 1 -5 -13z"/>
<path d="M632 11230 c0 -14 2 -19 5 -12 2 6 2 18 0 25 -3 6 -5 1 -5 -13z"/>
<path d="M641 11185 c-2 -17 28 -187 33 -193 12 -11 14 4 6 48 -11 58 -37 158
-39 145z"/>
<path d="M688 10944 c-4 -5 -1 -37 7 -70 8 -32 17 -72 21 -89 6 -29 6 -30 15
-7 5 14 5 31 -1 42 -6 10 -10 35 -10 54 0 20 -4 36 -9 36 -5 0 -11 10 -13 23
-2 12 -6 17 -10 11z"/>
<path d="M3463 10793 c9 -2 25 -2 35 0 9 3 1 5 -18 5 -19 0 -27 -2 -17 -5z"/>
<path d="M1231 9669 c-2 -24 20 -80 29 -74 9 6 0 55 -10 55 -5 0 -11 8 -13 18
-4 14 -5 14 -6 1z"/>
<path d="M1290 9570 c0 -5 5 -10 10 -10 6 0 10 5 10 10 0 6 -4 10 -10 10 -5 0
-10 -4 -10 -10z"/>
<path d="M1260 9550 c0 -5 5 -10 11 -10 5 0 7 5 4 10 -3 6 -8 10 -11 10 -2 0
-4 -4 -4 -10z"/>
<path d="M1520 9280 c0 -5 5 -10 10 -10 18 0 11 -49 -10 -60 -11 -6 -36 -32
-55 -57 -40 -52 -40 -61 -16 -205 5 -32 7 -67 4 -78 -3 -11 1 -30 9 -42 17
-25 31 -100 32 -165 0 -51 9 -53 98 -25 71 22 86 36 31 29 -41 -5 -41 -5 -58
39 -9 24 -21 68 -26 97 -4 28 -18 98 -30 154 -12 56 -19 113 -15 127 3 13 22
39 42 58 43 40 67 83 59 107 -8 27 -75 54 -75 31z"/>
<path d="M1020 9050 c0 -5 5 -10 10 -10 6 0 10 5 10 10 0 6 -4 10 -10 10 -5 0
-10 -4 -10 -10z"/>
<path d="M1721 8851 c-6 -10 -8 -21 -6 -23 3 -3 6 -29 6 -58 1 -39 -3 -57 -15
-65 -28 -21 -20 -38 16 -31 39 8 44 12 31 28 -15 19 -24 115 -13 143 11 30 -4
34 -19 6z"/>
<path d="M3396 6710 c-10 -27 -16 -57 -14 -67 2 -10 12 11 22 45 21 77 17 91
-8 22z"/>
</g>
</svg>
